<svg width="273" height="253" viewBox="0 0 273 253" fill="none" xmlns="http://www.w3.org/2000/svg">
<path d="M48.06 49.3625C72.0692 13.9802 121.715 -0.226479 161.957 13.0765C181.362 19.4946 197.625 32.8589 212.624 46.7323C225.846 58.9598 238.673 72.1483 247.702 87.8675C253.867 98.5971 258.28 111.459 261.396 123.466C266.054 141.445 261.824 164.61 238.583 162.913C233.13 162.515 228.413 160.555 223.313 158.839C219.188 157.448 215.145 158.283 210.862 157.603C200.082 155.896 189.697 151.927 179.876 147.279C159.863 137.796 141.575 124.912 120.993 116.602C104.125 109.801 86.1125 106.29 67.9255 106.258C60.2529 106.245 52.1853 106.782 45.3219 103.351C28.4055 94.8875 36.0126 72.0652 42.3304 59.2269C44.0042 55.8072 45.9189 52.5107 48.06 49.3625Z" fill="url(#paint0_linear)"/>
<path d="M163.212 43.489C171.585 48.4183 177.865 55.7966 185.498 61.7388C198.207 71.6304 215.626 73.6541 230.2 80.5331C245.061 87.5517 256.282 98.4593 261.355 114.18C267.909 134.472 268.532 158.604 262.964 179.465C256.831 202.429 242.43 217.682 221.373 227.855C200.329 238.021 177.017 242.765 153.766 243.744C151.522 243.841 149.282 243.893 147.033 243.907C96.5216 244.2 29.2879 226.421 12.0909 172.159C11.9332 171.663 11.7822 171.167 11.6307 170.665C9.85865 164.619 8.81676 158.384 8.52723 152.09C7.44557 129.781 11.3502 105.156 19.1718 84.242C24.4326 70.1618 35.7607 58.2563 47.6975 49.7733C64.4687 37.8559 84.932 34.8145 105.299 33.3846C120.381 32.3264 137.343 31.9398 151.605 37.7086C155.613 39.3427 159.493 41.2749 163.212 43.489Z" fill="url(#paint1_linear)"/>
<path d="M183.484 122.001C182.735 132.61 181.813 145.639 180.904 158.365C172.428 160.663 147.312 165.323 98.0535 158.72C96.8163 147.526 95.648 136.279 94.6963 126.73C107.659 128.223 149.646 131.905 183.484 122.001Z" fill="#D9423D"/>
<path d="M178.24 201.226C177.899 205.679 177.669 208.508 177.587 208.997C177.085 212.229 167.574 218.504 145.665 218.504C123.766 218.504 111.027 218.845 106.787 213.588C106.147 212.784 105.376 209.676 104.532 204.947C116.094 207.028 148.612 211.343 178.24 201.226Z" fill="#D9423D"/>
<path d="M188.454 100.16C186.934 101.843 174.546 107.629 140.747 109.316C137.584 109.477 134.525 109.559 131.634 109.572C106.177 109.775 91.462 105.132 91.1634 104.236C90.8253 103.202 90.146 96.4088 91.0026 95.5687L91.0157 95.5556C91.8328 94.8599 101.53 99.8481 129.432 99.031C132.871 98.9358 136.576 98.7454 140.583 98.4468C173.417 96.015 183.945 91.0038 186.632 90.8397C186.947 90.8135 187.151 90.8529 187.276 90.9776C188.454 92.1721 189.99 98.4468 188.454 100.16Z" fill="#FF807C"/>
<path d="M186.594 91.6556C185.413 96.0826 151.099 104.234 134.293 103.88C132.948 103.854 131.524 103.814 130.043 103.732C113.09 102.958 88.9628 99.4661 91.0007 95.5674L91.0139 95.5543C91.2305 95.213 98.0269 85.2299 125.098 82.4864C126.742 82.3223 128.465 82.1878 130.26 82.0795C131.195 82.0106 132.147 81.9679 133.125 81.9154C133.302 81.9154 133.479 81.9154 133.657 81.9023C134.635 81.8596 135.639 81.8334 136.673 81.8202C137.867 81.794 139.035 81.7808 140.174 81.7808C172.736 81.5478 186.063 86.6969 186.634 90.8384C186.673 91.1239 186.663 91.3963 186.594 91.6556Z" fill="#C63F3B"/>
<path d="M148.288 102.734C147.753 103.621 144.895 104.404 141.593 104.808C138.341 105.207 134.638 105.224 132.301 104.597C131.248 104.32 130.467 103.92 130.12 103.377C129.932 103.083 129.656 102.263 129.309 101.047C128.703 98.9562 127.871 95.6833 126.956 91.9015C126.851 91.4513 126.734 90.997 126.626 90.5259C126.078 88.2626 125.505 85.8269 124.916 83.387C124.553 81.8558 124.168 80.3245 123.809 78.8101C123.6 77.9561 123.395 77.119 123.202 76.3029C122.459 73.2866 121.748 70.4513 121.109 68.0997C120.298 65.0498 119.604 62.7866 119.136 61.9369C119.031 61.7602 118.943 61.6382 118.877 61.5877C118.772 61.5162 118.617 61.4825 118.396 61.4489C117.167 61.2554 114.191 61.4489 110.693 61.7097C103.667 62.2313 94.6015 63.0138 93.7907 61.3605C93.2891 60.3341 92.9088 58.0709 92.8085 55.5636C92.6162 51.6598 93.0802 47.2049 94.6559 46.1406C95.8512 45.3413 102.702 44.542 110.175 44.1886C114.053 44.033 118.099 43.9825 121.61 44.1213C126.078 44.2938 129.673 44.7649 130.985 45.6862C131.558 46.0901 132.285 47.3269 133.133 49.1736C134.345 51.8028 135.779 55.6478 137.284 60.1238C138.165 62.8077 139.085 65.6977 140.004 68.655C140.899 71.5997 141.781 74.6118 142.617 77.5901C142.755 78.0403 142.872 78.4778 142.993 78.9321C143.152 79.5042 143.327 80.0805 143.482 80.6526C144.017 82.6214 144.535 84.5565 145.02 86.3991C145.313 87.5138 145.588 88.5781 145.831 89.6214C146.504 92.2506 147.06 94.619 147.494 96.6046C148.201 100.033 148.531 102.317 148.288 102.734Z" fill="#F5C827"/>
<path d="M147.278 96.432L139.6 98.2351L128.934 100.73C128.326 98.7072 127.487 95.5406 126.564 91.8815L136.948 88.8491L144.782 86.5576C145.811 90.3307 146.666 93.7538 147.278 96.432Z" fill="#FFAE00"/>
<path d="M137.464 60.2157L130.08 63.7123L120.945 68.0244C120.117 65.0385 119.409 62.8227 118.931 61.9908L126.968 54.9646L133.226 49.4912C134.463 52.0652 135.927 55.8336 137.464 60.2157Z" fill="#FFAE00"/>
<path d="M185.575 98.963C185.575 98.963 184.896 108.556 183.944 122.07C183.196 132.68 182.273 145.708 181.364 158.435C181.145 161.559 180.915 164.657 180.698 167.699C180.18 175.05 179.678 182.056 179.228 188.144C178.834 193.264 178.496 197.746 178.24 201.225C177.899 205.682 177.669 208.507 177.584 208.996C177.085 212.229 167.575 218.503 145.666 218.503C123.767 218.503 111.024 218.845 106.784 213.587C106.147 212.787 105.376 209.676 104.532 204.947C102.698 194.678 100.496 176.816 98.5138 158.789C97.2766 147.595 96.1083 136.349 95.1566 126.799C93.6765 112.018 92.6854 101.342 92.6854 101.342L119.297 100.663L153.135 99.7933L185.575 98.963Z" fill="#FB4C47"/>
<path d="M142.917 78.6672C140.741 79.2251 137.927 79.966 135.059 80.6851C131.354 81.6439 127.562 82.6158 124.992 83.287C124.632 81.6962 124.251 80.1098 123.89 78.5408C123.683 77.6561 123.484 76.7888 123.293 75.9433L132.556 71.5414L139.949 68.0243C140.84 71.0707 141.715 74.1913 142.54 77.2769C142.676 77.7476 142.796 78.1965 142.917 78.6672Z" fill="#FFAE00"/>
<path d="M121.11 44.1199C120.696 46.5286 120.19 49.4854 119.628 52.5627C119.098 55.4822 118.552 58.4889 118.042 61.2257C116.874 61.0346 114.037 61.2257 110.702 61.4832L110.471 53.1441L110.208 44.1905C113.902 44.0327 117.763 43.9828 121.11 44.1199Z" fill="#FFAE00"/>
<g opacity="0.309998">
<g opacity="0.309998">
<path opacity="0.309998" d="M147.903 89.0698C156.1 89.4308 164.213 90.3398 172.286 91.8264C174.849 92.299 175.948 88.3741 173.369 87.8982C164.938 86.3427 156.465 85.3713 147.903 84.9939C145.28 84.879 145.287 88.9549 147.903 89.0698Z" fill="white"/>
</g>
</g>
<g opacity="0.300003">
<g opacity="0.300003">
<path opacity="0.300003" d="M173.343 119.716C172.877 134.598 171.929 149.448 170.505 164.269C170.252 166.878 174.331 166.861 174.577 164.269C176.008 149.448 176.953 134.598 177.419 119.716C177.501 117.094 173.425 117.094 173.343 119.716Z" fill="#FFC7D3"/>
</g>
<g opacity="0.300003">
<path opacity="0.300003" d="M172.401 175.571C175.023 175.571 175.026 171.495 172.401 171.495C169.778 171.495 169.772 175.571 172.401 175.571Z" fill="#FFC7D3"/>
</g>
</g>
<defs>
<linearGradient id="paint0_linear" x1="292.594" y1="54.5165" x2="122.402" y2="15.2168" gradientUnits="userSpaceOnUse">
<stop stop-color="#FFF7F7"/>
<stop offset="1" stop-color="#FFD0D0"/>
</linearGradient>
<linearGradient id="paint1_linear" x1="243.31" y1="220.851" x2="8.57516" y2="84.9172" gradientUnits="userSpaceOnUse">
<stop stop-color="#FFCFCF"/>
<stop offset="1" stop-color="#FFF8F8"/>
</linearGradient>
</defs>
</svg>
