<svg width="151" height="297" viewBox="0 0 151 297" fill="none" xmlns="http://www.w3.org/2000/svg">
<g filter="url(#filter0_d)">
<path d="M136.935 139.427C132.488 139.294 128.656 142.783 127.568 147.578C120.684 148.124 112.819 148.31 104.185 147.754C99.3828 147.436 94.8174 146.923 90.5477 146.288C90.5713 145.449 90.5831 144.602 90.5831 143.754C90.5831 139.63 90.2875 135.577 89.7434 131.611C91.9197 129.907 94.64 128.114 97.9399 126.578C103.653 123.894 108.999 122.94 113.126 122.666C115.149 127.372 119.797 130.111 124.244 128.918C129.259 127.576 132.133 121.774 130.643 115.955C129.165 110.135 123.913 106.497 118.898 107.839C114.333 109.066 111.542 113.994 112.204 119.266C108.597 121.368 103.227 123.646 96.5797 123.813C93.3035 123.902 90.4294 123.452 88.0993 122.87C86.6209 116.714 84.5038 110.815 81.7953 105.252C84.6576 102.603 88.0402 99.794 92.0024 97.0826C97.7388 93.1447 103.274 90.3277 108.135 88.3048C111.305 92.103 116.355 93.3658 120.258 91.0527C124.741 88.4019 125.995 82.0173 123.073 76.8068C120.152 71.5977 114.132 69.5309 109.649 72.189C105.758 74.4936 104.291 79.6154 105.9 84.3316C101.725 87.6514 96.5915 91.157 90.4294 94.2837C86.2424 96.4208 82.2329 98.0455 78.6019 99.2817C75.6332 94.1866 72.1678 89.4352 68.2647 85.0991C69.7668 79.5183 72.2978 73.0013 76.6149 66.4662C80.6717 60.356 85.1661 55.896 88.9864 52.7607C93.197 55.437 98.4958 55.0218 101.512 51.498C104.942 47.5067 104.161 41.0516 99.7495 37.0786C95.3615 33.0958 89.0219 33.103 85.6038 37.0955C82.5878 40.6193 82.8243 46.0507 85.9586 50.014C83.4867 54.2008 79.7491 59.3931 74.2611 64.3388C68.2054 69.7957 62.1261 73.0633 57.4897 75.0061C52.2146 70.8642 46.4665 67.3489 40.328 64.5683C41.2151 62.0329 42.3978 59.4817 43.9472 56.9742C45.1891 54.9865 46.5256 53.238 47.874 51.7105C52.5458 53.6618 57.7855 52.2581 60.1391 48.1696C62.7885 43.604 60.8487 37.404 55.8102 34.3319C50.7717 31.2586 44.5504 32.4679 41.9011 37.0421C39.5829 41.0613 40.8011 46.3409 44.5505 49.6437C43.7699 51.7638 42.8236 53.9629 41.6882 56.2044C40.399 58.7835 39.0033 61.1599 37.5249 63.3577C36.898 63.1015 36.283 62.8549 35.6561 62.6255C28.3467 59.8169 20.5523 58.0428 12.4268 57.4417C11.0903 53.7503 9.93123 49.6595 9.11512 45.1667C7.45927 35.999 7.76686 28.0201 8.53565 22.0277C13.314 21.0879 16.8858 17.2387 16.8858 12.6257C16.8858 7.30967 12.143 3.00018 6.28842 3.00018C0.421963 3.00018 -4.3328 7.30967 -4.3328 12.6257C-4.3328 17.3176 -0.630759 21.2203 4.26584 22.0727C5.33031 27.9789 6.02821 36.2455 4.39601 45.8285C3.6627 50.0469 2.58635 53.8913 1.33264 57.3714C-6.46171 57.8219 -13.9485 59.3651 -21.0214 61.8519C-22.0031 60.2467 -22.8901 58.5613 -23.6826 56.5736C-25.2438 52.6369 -25.918 48.948 -26.19 45.8771C-21.6128 43.4304 -19.2591 38.2976 -20.8677 33.7575C-22.6418 28.7644 -28.5437 26.3882 -34.0554 28.4524C-39.5552 30.5167 -42.583 36.237 -40.797 41.2313C-39.2595 45.5395 -34.6585 47.8915 -29.892 47.1302C-28.4964 50.0699 -27.1598 53.4589 -26.119 57.3094C-25.5513 59.3481 -25.1373 61.342 -24.818 63.2921C-31.2403 65.904 -37.2605 69.31 -42.7958 73.3863C-45.7054 71.2237 -48.686 68.7138 -51.631 65.7728C-58.4082 59.0009 -62.9264 52.0552 -65.8951 46.4927C-62.607 42.7576 -62.0274 37.41 -64.7833 33.7259C-67.9412 29.51 -74.2689 29.0655 -78.9172 32.7314C-83.5535 36.3985 -84.7599 42.7868 -81.6138 47.0015C-78.8107 50.7257 -73.5593 51.5004 -69.1594 49.101C-64.8779 53.0437 -59.3071 59.2619 -55.0019 68.2013C-53.0267 72.2898 -51.6547 76.2653 -50.6848 79.9725C-51.5719 80.8103 -52.4708 81.6748 -53.3342 82.5563C-57.6513 87.0042 -61.5189 91.9293 -64.8306 97.2587C-66.7821 96.6819 -68.8046 95.9837 -70.8744 95.1289C-77.6043 92.347 -82.8202 88.8002 -86.6051 85.7099C-84.9965 80.9038 -86.5696 75.7188 -90.5673 73.47C-95.0972 70.914 -101.058 73.1191 -103.873 78.3951C-106.7 83.6687 -105.304 90.0169 -100.751 92.5717C-96.7648 94.8181 -91.679 93.3828 -88.5921 89.4194C-84.003 91.049 -78.2785 93.6633 -72.3766 97.9557C-70.6143 99.238 -69.0057 100.557 -67.5036 101.883C-72.1755 110.526 -75.4399 120.078 -76.9893 130.22C-81.0225 130.573 -85.3749 130.743 -90.0468 130.595C-96.7175 130.385 -102.738 129.582 -108.001 128.538C-108.119 123.234 -111.573 118.795 -116.257 118.29C-121.413 117.734 -126.085 122.134 -126.7 128.117C-127.304 134.099 -123.625 139.399 -118.48 139.952C-113.891 140.447 -109.704 137.013 -108.391 132.035C-102.998 132.147 -96.9424 132.642 -90.3781 133.802C-85.8245 134.605 -81.6257 135.628 -77.7344 136.766C-77.9236 139.07 -78.0064 141.398 -78.0064 143.754C-78.0064 149.348 -77.4978 154.819 -76.5043 160.122C-80.9751 163.157 -87.1255 166.598 -94.9671 169.015C-101.839 171.133 -108.025 171.855 -112.957 172.01C-114.731 167.294 -119.131 164.352 -123.59 165.234C-128.664 166.242 -131.893 171.846 -130.781 177.752C-129.669 183.66 -124.642 187.63 -119.568 186.623C-115.169 185.751 -112.176 181.444 -112.164 176.477C-107.114 174.792 -101.153 173.21 -94.3758 172.18C-86.5932 170.997 -79.6032 170.827 -73.713 171.09C-71.3594 178.409 -68.0476 185.284 -63.9671 191.578C-65.895 193.143 -68.0358 194.688 -70.4605 196.131C-75.085 198.898 -79.5204 200.618 -83.3762 201.73C-85.9782 197.457 -90.8511 195.451 -95.0617 197.198C-99.8519 199.194 -101.969 205.331 -99.7691 210.903C-98.3852 214.4 -95.6295 216.855 -92.578 217.694C-90.7802 218.197 -88.8759 218.136 -87.0899 217.394C-86.5695 217.173 -86.061 216.899 -85.5997 216.572C-82.0988 214.19 -80.6085 209.25 -82.0869 204.538C-78.444 202.608 -74.1861 200.697 -69.2895 199.121C-66.1315 198.111 -63.1274 197.372 -60.3006 196.824C-57.7222 200.248 -54.8836 203.461 -51.8439 206.426C-51.56 206.709 -51.2644 206.992 -50.9805 207.255C-53.0385 211.972 -56.1374 217.703 -60.8092 223.513C-65.3865 229.201 -70.1411 233.341 -74.1507 236.267C-78.1602 233.341 -83.4235 233.405 -86.6524 236.681C-90.3426 240.416 -89.9877 246.916 -85.8599 251.198C-81.7558 255.471 -75.4162 255.915 -71.7378 252.178C-68.5326 248.936 -68.3789 243.604 -71.0992 239.463C-67.9531 235.249 -63.8489 230.499 -58.6093 225.809C-52.9675 220.776 -47.4086 217.05 -42.5593 214.303C-36.1488 218.983 -29.0641 222.771 -21.5063 225.483C-21.802 228.405 -22.3106 231.558 -23.1503 234.87C-24.9718 242.085 -27.6921 247.869 -30.1641 252.126C-35.0252 251.127 -39.8272 253.406 -41.4712 257.769C-43.3282 262.723 -40.4067 268.498 -34.9424 270.67C-29.4899 272.843 -23.5525 270.582 -21.6719 265.619C-20.0515 261.31 -22.0386 256.382 -26.19 253.75C-25.0191 248.619 -23.1622 242.552 -20.2289 236.035C-18.786 232.857 -17.2602 229.96 -15.699 227.32C-9.86803 228.936 -3.80056 229.926 2.46803 230.199C3.4852 235.233 4.31313 240.866 4.71526 247.021C5.31846 256.178 4.83363 264.286 3.98204 270.979C-0.772624 271.925 -4.3328 275.774 -4.3328 280.376C-4.3328 285.692 0.41013 290 6.28842 290C12.143 290 16.8858 285.692 16.8858 280.376C16.8858 275.792 13.3494 271.95 8.61835 270.987C7.8259 264.144 7.40011 256.055 7.84956 247.021C8.15707 240.927 8.83124 235.302 9.68282 230.216C16.2353 229.96 22.5867 228.928 28.6542 227.204C29.1746 228.122 29.6833 229.077 30.18 230.058C33.4799 236.53 35.254 242.598 36.2121 247.454C31.9896 249.971 29.837 254.863 31.3628 259.226C33.0896 264.232 38.9797 266.652 44.5031 264.638C50.0147 262.616 53.0899 256.92 51.3513 251.914C49.8137 247.472 44.9998 245.069 40.0796 245.988C37.8205 242.005 35.1948 235.991 34.2841 228.291C34.1658 227.337 34.0831 226.402 34.0358 225.483C40.7893 223.081 47.1525 219.805 53.0072 215.795C56.7801 218.947 60.7541 222.709 64.7045 227.178C70.7839 234.048 75.2073 240.822 78.4008 246.579C75.16 250.306 74.6041 255.613 77.3363 259.278C80.5061 263.49 86.822 263.932 91.4702 260.267C96.1066 256.603 97.3131 250.218 94.167 245.998C91.4348 242.359 86.337 241.528 82.0082 243.745C77.3481 238.897 72.1796 232.76 67.2002 225.218C63.9831 220.343 61.3219 215.611 59.1338 211.168C61.4875 209.216 63.7347 207.141 65.8873 204.942C69.3882 201.339 72.5935 197.427 75.4321 193.242C80.6717 194.744 86.7155 196.943 93.126 200.244C99.3118 203.416 104.469 206.903 108.62 210.153C107.047 214.869 108.537 219.972 112.441 222.25C116.935 224.891 122.932 222.789 125.841 217.571C128.751 212.343 127.45 205.975 122.955 203.334C119.028 201.031 113.931 202.347 110.785 206.215C106.148 204.403 100.518 201.658 94.6873 197.445C88.6316 193.074 84.0544 188.384 80.7427 184.34C82.9781 180.032 84.8704 175.501 86.3843 170.785C88.8918 170.874 91.553 171.103 94.297 171.527C101.382 172.622 107.284 174.679 111.825 176.728C111.435 181.762 114.203 186.371 118.591 187.528C123.606 188.853 128.857 185.205 130.324 179.378C131.778 173.55 128.904 167.757 123.878 166.432C119.478 165.265 114.877 167.951 112.831 172.586C108.017 172.18 101.831 171.093 95.0776 168.41C92.5228 167.385 90.1574 166.246 88.0047 165.054C89.0811 160.683 89.838 156.187 90.2283 151.578C94.5927 151.216 99.2291 150.986 104.114 150.977C112.724 150.951 120.554 151.586 127.426 152.522C128.254 157.371 131.885 161.062 136.32 161.204C141.501 161.354 145.841 156.602 145.995 150.589C146.161 144.576 142.104 139.577 136.935 139.427Z" fill="#128E5A" fill-opacity="0.74"/>
</g>
<defs>
<filter id="filter0_d" x="-136" y="0.000183105" width="287" height="297" filterUnits="userSpaceOnUse" color-interpolation-filters="sRGB">
<feFlood flood-opacity="0" result="BackgroundImageFix"/>
<feColorMatrix in="SourceAlpha" type="matrix" values="0 0 0 0 0 0 0 0 0 0 0 0 0 0 0 0 0 0 127 0"/>
<feOffset dy="2"/>
<feGaussianBlur stdDeviation="2.5"/>
<feColorMatrix type="matrix" values="0 0 0 0 0 0 0 0 0 0 0 0 0 0 0 0 0 0 0.1 0"/>
<feBlend mode="normal" in2="BackgroundImageFix" result="effect1_dropShadow"/>
<feBlend mode="normal" in="SourceGraphic" in2="effect1_dropShadow" result="shape"/>
</filter>
</defs>
</svg>
