<svg width="694" height="825" viewBox="0 0 694 825" fill="none" xmlns="http://www.w3.org/2000/svg">
<g filter="url(#filter0_d)">
<path d="M95 88H599V723H95V88Z" fill="url(#paint0_linear)"/>
</g>
<rect x="150" y="407" width="49" height="35" rx="2.64865" fill="white"/>
<mask id="mask0" mask-type="alpha" maskUnits="userSpaceOnUse" x="150" y="407" width="49" height="35">
<rect x="150" y="407" width="49" height="35" rx="2.64865" fill="white"/>
</mask>
<g mask="url(#mask0)">
<rect x="150" y="407" width="49" height="35" fill="#F1361D"/>
<path fill-rule="evenodd" clip-rule="evenodd" d="M167.634 417.425L169.328 417.714L170.6 418.871L170.888 417.177L172.046 415.906L170.351 415.617L169.08 414.459L168.791 416.154L167.634 417.425ZM172.17 423.353L173.638 422.459L175.357 422.498L174.463 421.03L174.503 419.311L173.034 420.205L171.315 420.165L172.209 421.634L172.17 423.353ZM170.18 432.948L168.744 433.892L168.724 432.173L167.779 430.737L169.498 430.716L170.935 429.772L170.955 431.491L171.9 432.928L170.18 432.948ZM171.427 428.503L173.135 428.314L174.676 429.076L174.487 427.367L175.249 425.826L173.541 426.016L172 425.253L172.189 426.962L171.427 428.503Z" fill="#FFDC42"/>
<path fill-rule="evenodd" clip-rule="evenodd" d="M161.666 426.397L157.552 429.33L159.07 424.51L155.009 421.503L160.061 421.458L161.666 416.667L163.271 421.458L168.323 421.503L164.262 424.51L165.781 429.33L161.666 426.397Z" fill="#FFDC42"/>
</g>
<path d="M237.353 436.409C235.365 436.409 233.594 435.98 232.04 435.122C230.496 434.264 229.29 433.048 228.422 431.474C227.554 429.9 227.12 428.094 227.12 426.055C227.12 424.027 227.549 422.231 228.407 420.667C229.264 419.092 230.465 417.876 232.009 417.019C233.563 416.161 235.344 415.732 237.353 415.732C239.007 415.732 240.521 416.014 241.894 416.58C243.266 417.145 244.401 417.962 245.299 419.032C246.197 420.091 246.773 421.322 247.025 422.725H242.983C242.671 421.655 242.005 420.783 240.985 420.106C239.966 419.42 238.745 419.077 237.322 419.077C236.041 419.077 234.91 419.365 233.932 419.94C232.963 420.515 232.216 421.338 231.691 422.407C231.167 423.467 230.904 424.693 230.904 426.085C230.904 427.488 231.172 428.719 231.707 429.779C232.241 430.828 232.993 431.631 233.962 432.186C234.941 432.741 236.061 433.018 237.322 433.018C238.705 433.018 239.911 432.685 240.94 432.019C241.979 431.343 242.66 430.45 242.983 429.34H247.025C246.793 430.722 246.233 431.953 245.345 433.033C244.457 434.103 243.326 434.935 241.954 435.531C240.582 436.116 239.048 436.409 237.353 436.409ZM249.719 414.733H253.186V423.785C253.599 423.149 254.19 422.649 254.957 422.286C255.723 421.923 256.551 421.741 257.439 421.741C259.074 421.741 260.34 422.246 261.238 423.255C262.136 424.254 262.585 425.652 262.585 427.448V436H259.119V428.25C259.119 426.968 258.837 426.085 258.271 425.601C257.716 425.117 257.086 424.875 256.379 424.875C255.552 424.875 254.805 425.117 254.139 425.601C253.483 426.085 253.155 426.908 253.155 428.068V436H249.719V414.733ZM268.02 419.471C267.313 419.471 266.733 419.249 266.279 418.805C265.825 418.361 265.598 417.811 265.598 417.155C265.598 416.489 265.825 415.939 266.279 415.505C266.733 415.071 267.313 414.854 268.02 414.854C268.726 414.854 269.296 415.071 269.73 415.505C270.174 415.939 270.396 416.489 270.396 417.155C270.396 417.791 270.169 418.335 269.715 418.79C269.261 419.244 268.696 419.471 268.02 419.471ZM266.279 422.18H269.745V436H266.279V422.18ZM281.173 421.741C282.778 421.741 284.044 422.251 284.973 423.27C285.911 424.279 286.38 425.672 286.38 427.448V436H282.899V428.25C282.899 426 281.981 424.875 280.144 424.875C279.155 424.875 278.388 425.162 277.843 425.737C277.308 426.312 277.041 427.09 277.041 428.068V436H273.605V422.18H276.481L276.738 423.845C277.172 423.209 277.788 422.7 278.585 422.316C279.382 421.933 280.245 421.741 281.173 421.741ZM304.09 422.18V436H300.775V434.047C300.301 434.774 299.62 435.349 298.732 435.773C297.854 436.197 296.87 436.409 295.78 436.409C294.499 436.409 293.358 436.111 292.359 435.516C291.37 434.91 290.604 434.062 290.059 432.973C289.514 431.873 289.241 430.596 289.241 429.143C289.241 427.68 289.529 426.388 290.104 425.268C290.679 424.138 291.481 423.27 292.511 422.665C293.55 422.049 294.741 421.741 296.083 421.741C297.132 421.741 298.076 421.933 298.914 422.316C299.761 422.7 300.432 423.24 300.927 423.936L301.199 422.18H304.09ZM296.643 433.275C297.804 433.275 298.747 432.882 299.474 432.095C300.21 431.308 300.579 430.283 300.579 429.022C300.579 427.761 300.22 426.751 299.504 425.995C298.798 425.228 297.854 424.844 296.673 424.844C295.493 424.844 294.544 425.233 293.828 426.01C293.121 426.777 292.768 427.791 292.768 429.052C292.768 430.314 293.126 431.333 293.843 432.11C294.559 432.887 295.493 433.275 296.643 433.275Z" fill="#13615F"/>
<path d="M444.828 425.82C445.578 426.125 446.164 426.613 446.586 427.285C447.008 427.957 447.219 428.723 447.219 429.582C447.219 430.527 446.973 431.348 446.48 432.043C445.996 432.738 445.332 433.273 444.488 433.648C443.652 434.023 442.707 434.211 441.652 434.211C440.582 434.211 439.617 434.023 438.758 433.648C437.906 433.273 437.238 432.734 436.754 432.031C436.277 431.328 436.039 430.504 436.039 429.559C436.039 428.691 436.254 427.93 436.684 427.273C437.121 426.609 437.699 426.117 438.418 425.797C437.855 425.461 437.402 424.996 437.059 424.402C436.715 423.809 436.543 423.168 436.543 422.48C436.543 421.684 436.758 420.973 437.188 420.348C437.625 419.723 438.23 419.23 439.004 418.871C439.777 418.512 440.66 418.332 441.652 418.332C442.645 418.332 443.523 418.512 444.289 418.871C445.062 419.23 445.664 419.727 446.094 420.359C446.523 420.992 446.738 421.707 446.738 422.504C446.738 423.223 446.562 423.879 446.211 424.473C445.859 425.066 445.398 425.516 444.828 425.82ZM441.629 420.723C440.926 420.723 440.352 420.91 439.906 421.285C439.469 421.652 439.25 422.129 439.25 422.715C439.25 423.324 439.477 423.82 439.93 424.203C440.391 424.578 440.965 424.766 441.652 424.766C442.34 424.766 442.906 424.578 443.352 424.203C443.805 423.82 444.031 423.332 444.031 422.738C444.031 422.129 443.809 421.641 443.363 421.273C442.926 420.906 442.348 420.723 441.629 420.723ZM441.629 431.82C442.465 431.82 443.145 431.602 443.668 431.164C444.199 430.719 444.465 430.145 444.465 429.441C444.465 428.723 444.199 428.152 443.668 427.73C443.145 427.301 442.473 427.086 441.652 427.086C440.824 427.086 440.141 427.301 439.602 427.73C439.062 428.152 438.793 428.715 438.793 429.418C438.793 430.137 439.062 430.719 439.602 431.164C440.141 431.602 440.816 431.82 441.629 431.82ZM449.023 421.156C450.289 421.156 451.242 420.945 451.883 420.523C452.531 420.102 452.961 419.465 453.172 418.613H455.598V434H452.855V423.219H449.023V421.156ZM459.934 430.684C460.512 430.684 460.996 430.887 461.387 431.293C461.777 431.691 461.973 432.227 461.973 432.898C461.973 433.984 461.617 434.891 460.906 435.617C460.195 436.344 459.281 436.758 458.164 436.859V436.016C458.867 435.906 459.41 435.656 459.793 435.266C460.176 434.883 460.359 434.445 460.344 433.953C460.188 434.031 459.988 434.07 459.746 434.07C459.285 434.07 458.898 433.926 458.586 433.637C458.273 433.348 458.117 432.957 458.117 432.465C458.117 431.949 458.285 431.523 458.621 431.188C458.957 430.852 459.395 430.684 459.934 430.684ZM470.703 424.496C472.008 424.637 473.051 425.129 473.832 425.973C474.621 426.809 475.016 427.875 475.016 429.172C475.016 430.164 474.773 431.047 474.289 431.82C473.812 432.586 473.148 433.18 472.297 433.602C471.453 434.023 470.496 434.234 469.426 434.234C468.371 434.234 467.422 434.023 466.578 433.602C465.742 433.18 465.09 432.578 464.621 431.797C464.16 431.008 463.938 430.102 463.953 429.078H466.66C466.66 429.891 466.922 430.551 467.445 431.059C467.969 431.566 468.645 431.82 469.473 431.82C470.285 431.82 470.957 431.574 471.488 431.082C472.02 430.582 472.285 429.922 472.285 429.102C472.285 428.336 472.051 427.73 471.582 427.285C471.121 426.832 470.5 426.574 469.719 426.512C469.445 426.48 468.898 426.465 468.078 426.465H467.188V424.613L470.867 420.992H464.867V418.613H474.277V420.945L470.703 424.496ZM488.48 428.551V430.859H486.559V434H483.898V430.859H476.797V428.773L483.148 418.613H486.559V428.551H488.48ZM483.898 428.551V421.836L479.691 428.551H483.898ZM496.086 434.27C494.867 434.27 493.812 433.949 492.922 433.309C492.039 432.668 491.363 431.754 490.895 430.566C490.434 429.371 490.203 427.957 490.203 426.324C490.203 423.848 490.719 421.898 491.75 420.477C492.781 419.047 494.227 418.332 496.086 418.332C497.32 418.332 498.379 418.652 499.262 419.293C500.152 419.926 500.832 420.844 501.301 422.047C501.777 423.25 502.016 424.676 502.016 426.324C502.016 427.957 501.777 429.371 501.301 430.566C500.832 431.754 500.152 432.668 499.262 433.309C498.371 433.949 497.312 434.27 496.086 434.27ZM496.109 431.82C497.133 431.82 497.902 431.344 498.418 430.391C498.941 429.438 499.203 428.082 499.203 426.324C499.203 424.566 498.941 423.207 498.418 422.246C497.902 421.285 497.133 420.805 496.109 420.805C495.086 420.805 494.309 421.281 493.777 422.234C493.254 423.18 492.992 424.543 492.992 426.324C492.992 428.066 493.254 429.418 493.777 430.379C494.309 431.34 495.086 431.82 496.109 431.82Z" fill="#035755"/>
<path d="M533.652 430.617C533.053 431.337 531.947 431.337 531.348 430.617L523.05 420.66C522.236 419.683 522.931 418.2 524.203 418.2L540.797 418.2C542.069 418.2 542.764 419.683 541.95 420.66L533.652 430.617Z" fill="#128E5A"/>
<path d="M228.225 360V340.125H231.858V360H228.225ZM243.195 349.026H240.562V360H237.095V349.026H234.461V346.18H237.095V342.547H240.562V346.18H243.195V349.026ZM259.528 346.18V360H256.213V358.047C255.739 358.774 255.057 359.349 254.169 359.773C253.292 360.197 252.308 360.409 251.218 360.409C249.936 360.409 248.796 360.111 247.797 359.516C246.808 358.91 246.041 358.062 245.496 356.973C244.951 355.873 244.679 354.596 244.679 353.143C244.679 351.68 244.966 350.388 245.542 349.268C246.117 348.138 246.919 347.27 247.948 346.665C248.988 346.049 250.178 345.741 251.521 345.741C252.57 345.741 253.514 345.933 254.351 346.316C255.199 346.7 255.87 347.24 256.364 347.936L256.637 346.18H259.528ZM252.081 357.275C253.241 357.275 254.185 356.882 254.911 356.095C255.648 355.308 256.016 354.283 256.016 353.022C256.016 351.761 255.658 350.751 254.941 349.995C254.235 349.228 253.292 348.844 252.111 348.844C250.93 348.844 249.982 349.233 249.265 350.01C248.559 350.777 248.206 351.791 248.206 353.052C248.206 354.314 248.564 355.333 249.28 356.11C249.997 356.887 250.93 357.275 252.081 357.275ZM263.312 338.733H266.778V360H263.312V338.733ZM284.095 346.18L277.737 362.452C277.223 363.734 276.557 364.743 275.739 365.479C274.922 366.226 273.736 366.6 272.182 366.6C271.334 366.6 270.497 366.499 269.669 366.297L269.715 363.436C270.482 363.577 271.107 363.653 271.592 363.663C272.54 363.663 273.222 363.486 273.635 363.133C274.059 362.78 274.392 362.24 274.634 361.514L275.013 360.56L269.094 346.18H272.833L276.587 356.307L280.432 346.18H284.095Z" fill="#13615F"/>
<rect x="150.337" y="331.337" width="48.3269" height="34.3269" rx="2.35577" fill="white" stroke="#F5F5F5" stroke-width="0.673077"/>
<mask id="mask1" mask-type="alpha" maskUnits="userSpaceOnUse" x="150" y="331" width="49" height="35">
<rect x="150.337" y="331.337" width="48.3269" height="34.3269" rx="2.35577" fill="white" stroke="white" stroke-width="0.673077"/>
</mask>
<g mask="url(#mask1)">
<rect x="182.667" y="331" width="16.3333" height="35" fill="#E43D4C"/>
<path fill-rule="evenodd" clip-rule="evenodd" d="M150 366H166.333V331H150V366Z" fill="#1BB65D"/>
</g>
<path d="M438.5 349.82C439.25 350.125 439.836 350.613 440.258 351.285C440.68 351.957 440.891 352.723 440.891 353.582C440.891 354.527 440.645 355.348 440.152 356.043C439.668 356.738 439.004 357.273 438.16 357.648C437.324 358.023 436.379 358.211 435.324 358.211C434.254 358.211 433.289 358.023 432.43 357.648C431.578 357.273 430.91 356.734 430.426 356.031C429.949 355.328 429.711 354.504 429.711 353.559C429.711 352.691 429.926 351.93 430.355 351.273C430.793 350.609 431.371 350.117 432.09 349.797C431.527 349.461 431.074 348.996 430.73 348.402C430.387 347.809 430.215 347.168 430.215 346.48C430.215 345.684 430.43 344.973 430.859 344.348C431.297 343.723 431.902 343.23 432.676 342.871C433.449 342.512 434.332 342.332 435.324 342.332C436.316 342.332 437.195 342.512 437.961 342.871C438.734 343.23 439.336 343.727 439.766 344.359C440.195 344.992 440.41 345.707 440.41 346.504C440.41 347.223 440.234 347.879 439.883 348.473C439.531 349.066 439.07 349.516 438.5 349.82ZM435.301 344.723C434.598 344.723 434.023 344.91 433.578 345.285C433.141 345.652 432.922 346.129 432.922 346.715C432.922 347.324 433.148 347.82 433.602 348.203C434.062 348.578 434.637 348.766 435.324 348.766C436.012 348.766 436.578 348.578 437.023 348.203C437.477 347.82 437.703 347.332 437.703 346.738C437.703 346.129 437.48 345.641 437.035 345.273C436.598 344.906 436.02 344.723 435.301 344.723ZM435.301 355.82C436.137 355.82 436.816 355.602 437.34 355.164C437.871 354.719 438.137 354.145 438.137 353.441C438.137 352.723 437.871 352.152 437.34 351.73C436.816 351.301 436.145 351.086 435.324 351.086C434.496 351.086 433.812 351.301 433.273 351.73C432.734 352.152 432.465 352.715 432.465 353.418C432.465 354.137 432.734 354.719 433.273 355.164C433.812 355.602 434.488 355.82 435.301 355.82ZM448.93 347.781C449.953 347.781 450.875 347.992 451.695 348.414C452.523 348.836 453.172 349.438 453.641 350.219C454.117 350.992 454.355 351.883 454.355 352.891C454.355 353.914 454.102 354.836 453.594 355.656C453.094 356.469 452.395 357.102 451.496 357.555C450.605 358.008 449.59 358.234 448.449 358.234C447.316 358.234 446.324 358.008 445.473 357.555C444.629 357.102 443.973 356.477 443.504 355.68C443.043 354.875 442.812 353.977 442.812 352.984C442.812 352.023 443 351.145 443.375 350.348C443.75 349.543 444.258 348.688 444.898 347.781L448.402 342.613H451.402L447.711 347.898C448.047 347.82 448.453 347.781 448.93 347.781ZM448.555 355.82C449.414 355.82 450.137 355.555 450.723 355.023C451.309 354.492 451.602 353.797 451.602 352.938C451.602 352.086 451.316 351.406 450.746 350.898C450.176 350.383 449.469 350.125 448.625 350.125C447.758 350.125 447.031 350.383 446.445 350.898C445.867 351.406 445.578 352.094 445.578 352.961C445.578 353.828 445.859 354.523 446.422 355.047C446.992 355.562 447.703 355.82 448.555 355.82ZM457.824 354.684C458.402 354.684 458.887 354.887 459.277 355.293C459.668 355.691 459.863 356.227 459.863 356.898C459.863 357.984 459.508 358.891 458.797 359.617C458.086 360.344 457.172 360.758 456.055 360.859V360.016C456.758 359.906 457.301 359.656 457.684 359.266C458.066 358.883 458.25 358.445 458.234 357.953C458.078 358.031 457.879 358.07 457.637 358.07C457.176 358.07 456.789 357.926 456.477 357.637C456.164 357.348 456.008 356.957 456.008 356.465C456.008 355.949 456.176 355.523 456.512 355.188C456.848 354.852 457.285 354.684 457.824 354.684ZM472.543 352.551V354.859H470.621V358H467.961V354.859H460.859V352.773L467.211 342.613H470.621V352.551H472.543ZM467.961 352.551V345.836L463.754 352.551H467.961ZM480.219 342.332C481.352 342.332 482.348 342.562 483.207 343.023C484.074 343.484 484.738 344.117 485.199 344.922C485.668 345.719 485.902 346.621 485.902 347.629C485.902 348.301 485.797 348.945 485.586 349.562C485.383 350.18 485.148 350.711 484.883 351.156C484.617 351.594 484.254 352.148 483.793 352.82L480.289 358H477.289L480.98 352.738C480.535 352.816 480.129 352.859 479.762 352.867C478.738 352.867 477.816 352.652 476.996 352.223C476.184 351.785 475.539 351.176 475.062 350.395C474.594 349.605 474.359 348.715 474.359 347.723C474.359 346.684 474.609 345.754 475.109 344.934C475.617 344.105 476.316 343.465 477.207 343.012C478.098 342.559 479.102 342.332 480.219 342.332ZM477.125 347.652C477.125 348.504 477.402 349.188 477.957 349.703C478.52 350.211 479.227 350.465 480.078 350.465C480.961 350.465 481.688 350.211 482.258 349.703C482.836 349.188 483.125 348.504 483.125 347.652C483.125 346.785 482.84 346.098 482.27 345.59C481.699 345.082 480.992 344.828 480.148 344.828C479.281 344.828 478.559 345.094 477.98 345.625C477.41 346.148 477.125 346.824 477.125 347.652ZM496.625 349.82C497.375 350.125 497.961 350.613 498.383 351.285C498.805 351.957 499.016 352.723 499.016 353.582C499.016 354.527 498.77 355.348 498.277 356.043C497.793 356.738 497.129 357.273 496.285 357.648C495.449 358.023 494.504 358.211 493.449 358.211C492.379 358.211 491.414 358.023 490.555 357.648C489.703 357.273 489.035 356.734 488.551 356.031C488.074 355.328 487.836 354.504 487.836 353.559C487.836 352.691 488.051 351.93 488.48 351.273C488.918 350.609 489.496 350.117 490.215 349.797C489.652 349.461 489.199 348.996 488.855 348.402C488.512 347.809 488.34 347.168 488.34 346.48C488.34 345.684 488.555 344.973 488.984 344.348C489.422 343.723 490.027 343.23 490.801 342.871C491.574 342.512 492.457 342.332 493.449 342.332C494.441 342.332 495.32 342.512 496.086 342.871C496.859 343.23 497.461 343.727 497.891 344.359C498.32 344.992 498.535 345.707 498.535 346.504C498.535 347.223 498.359 347.879 498.008 348.473C497.656 349.066 497.195 349.516 496.625 349.82ZM493.426 344.723C492.723 344.723 492.148 344.91 491.703 345.285C491.266 345.652 491.047 346.129 491.047 346.715C491.047 347.324 491.273 347.82 491.727 348.203C492.188 348.578 492.762 348.766 493.449 348.766C494.137 348.766 494.703 348.578 495.148 348.203C495.602 347.82 495.828 347.332 495.828 346.738C495.828 346.129 495.605 345.641 495.16 345.273C494.723 344.906 494.145 344.723 493.426 344.723ZM493.426 355.82C494.262 355.82 494.941 355.602 495.465 355.164C495.996 354.719 496.262 354.145 496.262 353.441C496.262 352.723 495.996 352.152 495.465 351.73C494.941 351.301 494.27 351.086 493.449 351.086C492.621 351.086 491.938 351.301 491.398 351.73C490.859 352.152 490.59 352.715 490.59 353.418C490.59 354.137 490.859 354.719 491.398 355.164C491.938 355.602 492.613 355.82 493.426 355.82Z" fill="#035755"/>
<path d="M531.348 343.383C531.947 342.663 533.053 342.663 533.652 343.383L541.95 353.34C542.764 354.317 542.069 355.8 540.797 355.8H524.203C522.931 355.8 522.236 354.317 523.05 353.34L531.348 343.383Z" fill="#F44A45"/>
<path d="M228.074 264.125H231.707V276.689C231.707 278.223 232.14 279.338 233.008 280.034C233.876 280.73 234.981 281.079 236.323 281.079C237.746 281.079 238.876 280.71 239.714 279.974C240.551 279.227 240.97 278.132 240.97 276.689V264.125H244.603V276.84C244.603 278.475 244.245 279.863 243.528 281.003C242.812 282.133 241.828 282.986 240.577 283.561C239.335 284.126 237.918 284.409 236.323 284.409C234.709 284.409 233.281 284.121 232.04 283.546C230.798 282.961 229.825 282.103 229.118 280.973C228.422 279.832 228.074 278.455 228.074 276.84V264.125ZM248.251 269.771C248.251 268.55 248.544 267.486 249.129 266.578C249.724 265.669 250.557 264.968 251.626 264.474C252.706 263.979 253.947 263.732 255.35 263.732C256.733 263.732 257.964 263.974 259.043 264.458C260.123 264.943 260.966 265.629 261.571 266.517C262.177 267.405 262.479 268.439 262.479 269.62H258.741C258.721 268.772 258.382 268.091 257.727 267.577C257.081 267.052 256.228 266.79 255.168 266.79C254.2 266.79 253.423 267.032 252.837 267.516C252.262 267.99 251.975 268.606 251.975 269.363C251.975 270.11 252.227 270.66 252.731 271.013C253.246 271.366 253.927 271.643 254.775 271.845L258.029 272.647C259.513 273.001 260.714 273.652 261.632 274.6C262.55 275.539 263.009 276.75 263.009 278.233C263.009 279.474 262.696 280.559 262.071 281.487C261.455 282.416 260.577 283.137 259.437 283.652C258.307 284.156 256.99 284.409 255.486 284.409C253.256 284.409 251.44 283.869 250.037 282.789C248.645 281.699 247.888 280.221 247.767 278.354H251.505C251.546 279.282 251.934 280.014 252.671 280.549C253.408 281.074 254.366 281.336 255.547 281.336C256.687 281.336 257.58 281.094 258.226 280.609C258.872 280.125 259.195 279.459 259.195 278.611C259.195 277.885 258.968 277.335 258.514 276.961C258.06 276.588 257.464 276.311 256.728 276.129L253.397 275.327C251.763 274.933 250.496 274.277 249.598 273.359C248.7 272.431 248.251 271.235 248.251 269.771ZM271.38 264.125H275.073L282.445 284H278.6L276.996 279.474H269.397L267.717 284H263.963L271.38 264.125ZM275.936 276.462L274.665 272.965C274.543 272.632 274.21 271.648 273.666 270.014L273.242 268.772C273.161 269.045 272.969 269.615 272.667 270.483C272.364 271.351 272.056 272.178 271.743 272.965L270.441 276.462H275.936Z" fill="#13615F"/>
<rect x="150" y="255" width="49" height="35" rx="2.69231" fill="white"/>
<mask id="mask2" mask-type="alpha" maskUnits="userSpaceOnUse" x="150" y="255" width="49" height="35">
<rect x="150" y="255" width="49" height="35" rx="2.69231" fill="white"/>
</mask>
<g mask="url(#mask2)">
<path fill-rule="evenodd" clip-rule="evenodd" d="M199 255H150V257.333H199V255ZM199 259.667H150V262H199V259.667ZM150 264.333H199V266.666H150V264.333ZM199 269H150V271.333H199V269ZM150 273.667H199V276H150V273.667ZM199 278.334H150V280.667H199V278.334ZM150 283H199V285.333H150V283ZM199 287.667H150V290H199V287.667Z" fill="#D02F44"/>
<rect x="150" y="255" width="21" height="16.3333" fill="#46467F"/>
<g filter="url(#filter1_d)">
<path fill-rule="evenodd" clip-rule="evenodd" d="M159.332 258.5C159.332 259.144 158.81 259.667 158.166 259.667C157.521 259.667 156.999 259.144 156.999 258.5C156.999 257.856 157.521 257.333 158.166 257.333C158.81 257.333 159.332 257.856 159.332 258.5ZM154.666 258.5C154.666 259.145 154.144 259.667 153.499 259.667C152.855 259.667 152.333 259.145 152.333 258.5C152.333 257.856 152.855 257.334 153.499 257.334C154.144 257.334 154.666 257.856 154.666 258.5ZM162.833 259.667C163.477 259.667 163.999 259.144 163.999 258.5C163.999 257.856 163.477 257.333 162.833 257.333C162.188 257.333 161.666 257.856 161.666 258.5C161.666 259.144 162.188 259.667 162.833 259.667ZM168.666 258.5C168.666 259.144 168.144 259.667 167.499 259.667C166.855 259.667 166.333 259.144 166.333 258.5C166.333 257.856 166.855 257.333 167.499 257.333C168.144 257.333 168.666 257.856 168.666 258.5ZM155.831 262C156.475 262 156.998 261.478 156.998 260.834C156.998 260.189 156.475 259.667 155.831 259.667C155.187 259.667 154.664 260.189 154.664 260.834C154.664 261.478 155.187 262 155.831 262ZM161.664 260.834C161.664 261.478 161.142 262 160.498 262C159.853 262 159.331 261.478 159.331 260.834C159.331 260.189 159.853 259.667 160.498 259.667C161.142 259.667 161.664 260.189 161.664 260.834ZM165.165 262C165.809 262 166.331 261.478 166.331 260.834C166.331 260.189 165.809 259.667 165.165 259.667C164.52 259.667 163.998 260.189 163.998 260.834C163.998 261.478 164.52 262 165.165 262ZM168.666 263.167C168.666 263.811 168.144 264.334 167.499 264.334C166.855 264.334 166.333 263.811 166.333 263.167C166.333 262.523 166.855 262 167.499 262C168.144 262 168.666 262.523 168.666 263.167ZM162.833 264.334C163.477 264.334 163.999 263.811 163.999 263.167C163.999 262.523 163.477 262 162.833 262C162.188 262 161.666 262.523 161.666 263.167C161.666 263.811 162.188 264.334 162.833 264.334ZM159.332 263.167C159.332 263.811 158.81 264.334 158.166 264.334C157.521 264.334 156.999 263.811 156.999 263.167C156.999 262.523 157.521 262 158.166 262C158.81 262 159.332 262.523 159.332 263.167ZM153.499 264.334C154.143 264.334 154.665 263.811 154.665 263.167C154.665 262.523 154.143 262 153.499 262C152.854 262 152.332 262.523 152.332 263.167C152.332 263.811 152.854 264.334 153.499 264.334ZM156.998 265.5C156.998 266.145 156.475 266.667 155.831 266.667C155.187 266.667 154.664 266.145 154.664 265.5C154.664 264.856 155.187 264.334 155.831 264.334C156.475 264.334 156.998 264.856 156.998 265.5ZM160.498 266.667C161.142 266.667 161.664 266.145 161.664 265.5C161.664 264.856 161.142 264.334 160.498 264.334C159.853 264.334 159.331 264.856 159.331 265.5C159.331 266.145 159.853 266.667 160.498 266.667ZM166.331 265.5C166.331 266.145 165.809 266.667 165.165 266.667C164.52 266.667 163.998 266.145 163.998 265.5C163.998 264.856 164.52 264.334 165.165 264.334C165.809 264.334 166.331 264.856 166.331 265.5ZM167.499 269C168.144 269 168.666 268.478 168.666 267.833C168.666 267.189 168.144 266.667 167.499 266.667C166.855 266.667 166.333 267.189 166.333 267.833C166.333 268.478 166.855 269 167.499 269ZM163.999 267.833C163.999 268.478 163.477 269 162.833 269C162.188 269 161.666 268.478 161.666 267.833C161.666 267.189 162.188 266.667 162.833 266.667C163.477 266.667 163.999 267.189 163.999 267.833ZM158.166 269C158.81 269 159.332 268.478 159.332 267.833C159.332 267.189 158.81 266.667 158.166 266.667C157.521 266.667 156.999 267.189 156.999 267.833C156.999 268.478 157.521 269 158.166 269ZM154.665 267.833C154.665 268.478 154.143 269 153.499 269C152.854 269 152.332 268.478 152.332 267.833C152.332 267.189 152.854 266.667 153.499 266.667C154.143 266.667 154.665 267.189 154.665 267.833Z" fill="url(#paint1_linear)"/>
</g>
</g>
<path d="M419.477 269.156C420.742 269.156 421.695 268.945 422.336 268.523C422.984 268.102 423.414 267.465 423.625 266.613H426.051V282H423.309V271.219H419.477V269.156ZM434.641 282.27C433.422 282.27 432.367 281.949 431.477 281.309C430.594 280.668 429.918 279.754 429.449 278.566C428.988 277.371 428.758 275.957 428.758 274.324C428.758 271.848 429.273 269.898 430.305 268.477C431.336 267.047 432.781 266.332 434.641 266.332C435.875 266.332 436.934 266.652 437.816 267.293C438.707 267.926 439.387 268.844 439.855 270.047C440.332 271.25 440.57 272.676 440.57 274.324C440.57 275.957 440.332 277.371 439.855 278.566C439.387 279.754 438.707 280.668 437.816 281.309C436.926 281.949 435.867 282.27 434.641 282.27ZM434.664 279.82C435.688 279.82 436.457 279.344 436.973 278.391C437.496 277.438 437.758 276.082 437.758 274.324C437.758 272.566 437.496 271.207 436.973 270.246C436.457 269.285 435.688 268.805 434.664 268.805C433.641 268.805 432.863 269.281 432.332 270.234C431.809 271.18 431.547 272.543 431.547 274.324C431.547 276.066 431.809 277.418 432.332 278.379C432.863 279.34 433.641 279.82 434.664 279.82ZM448.352 282.27C447.133 282.27 446.078 281.949 445.188 281.309C444.305 280.668 443.629 279.754 443.16 278.566C442.699 277.371 442.469 275.957 442.469 274.324C442.469 271.848 442.984 269.898 444.016 268.477C445.047 267.047 446.492 266.332 448.352 266.332C449.586 266.332 450.645 266.652 451.527 267.293C452.418 267.926 453.098 268.844 453.566 270.047C454.043 271.25 454.281 272.676 454.281 274.324C454.281 275.957 454.043 277.371 453.566 278.566C453.098 279.754 452.418 280.668 451.527 281.309C450.637 281.949 449.578 282.27 448.352 282.27ZM448.375 279.82C449.398 279.82 450.168 279.344 450.684 278.391C451.207 277.438 451.469 276.082 451.469 274.324C451.469 272.566 451.207 271.207 450.684 270.246C450.168 269.285 449.398 268.805 448.375 268.805C447.352 268.805 446.574 269.281 446.043 270.234C445.52 271.18 445.258 272.543 445.258 274.324C445.258 276.066 445.52 277.418 446.043 278.379C446.574 279.34 447.352 279.82 448.375 279.82ZM457.012 278.684C457.59 278.684 458.074 278.887 458.465 279.293C458.855 279.691 459.051 280.227 459.051 280.898C459.051 281.984 458.695 282.891 457.984 283.617C457.273 284.344 456.359 284.758 455.242 284.859V284.016C455.945 283.906 456.488 283.656 456.871 283.266C457.254 282.883 457.438 282.445 457.422 281.953C457.266 282.031 457.066 282.07 456.824 282.07C456.363 282.07 455.977 281.926 455.664 281.637C455.352 281.348 455.195 280.957 455.195 280.465C455.195 279.949 455.363 279.523 455.699 279.188C456.035 278.852 456.473 278.684 457.012 278.684ZM467.781 272.496C469.086 272.637 470.129 273.129 470.91 273.973C471.699 274.809 472.094 275.875 472.094 277.172C472.094 278.164 471.852 279.047 471.367 279.82C470.891 280.586 470.227 281.18 469.375 281.602C468.531 282.023 467.574 282.234 466.504 282.234C465.449 282.234 464.5 282.023 463.656 281.602C462.82 281.18 462.168 280.578 461.699 279.797C461.238 279.008 461.016 278.102 461.031 277.078H463.738C463.738 277.891 464 278.551 464.523 279.059C465.047 279.566 465.723 279.82 466.551 279.82C467.363 279.82 468.035 279.574 468.566 279.082C469.098 278.582 469.363 277.922 469.363 277.102C469.363 276.336 469.129 275.73 468.66 275.285C468.199 274.832 467.578 274.574 466.797 274.512C466.523 274.48 465.977 274.465 465.156 274.465H464.266V272.613L467.945 268.992H461.945V266.613H471.355V268.945L467.781 272.496ZM480.039 266.332C481.172 266.332 482.168 266.562 483.027 267.023C483.895 267.484 484.559 268.117 485.02 268.922C485.488 269.719 485.723 270.621 485.723 271.629C485.723 272.301 485.617 272.945 485.406 273.562C485.203 274.18 484.969 274.711 484.703 275.156C484.438 275.594 484.074 276.148 483.613 276.82L480.109 282H477.109L480.801 276.738C480.355 276.816 479.949 276.859 479.582 276.867C478.559 276.867 477.637 276.652 476.816 276.223C476.004 275.785 475.359 275.176 474.883 274.395C474.414 273.605 474.18 272.715 474.18 271.723C474.18 270.684 474.43 269.754 474.93 268.934C475.438 268.105 476.137 267.465 477.027 267.012C477.918 266.559 478.922 266.332 480.039 266.332ZM476.945 271.652C476.945 272.504 477.223 273.188 477.777 273.703C478.34 274.211 479.047 274.465 479.898 274.465C480.781 274.465 481.508 274.211 482.078 273.703C482.656 273.188 482.945 272.504 482.945 271.652C482.945 270.785 482.66 270.098 482.09 269.59C481.52 269.082 480.812 268.828 479.969 268.828C479.102 268.828 478.379 269.094 477.801 269.625C477.23 270.148 476.945 270.824 476.945 271.652ZM492.285 279.527H497.98V282H488.254V280.031L493.727 274.102C494.188 273.609 494.559 273.125 494.84 272.648C495.121 272.164 495.262 271.633 495.262 271.055C495.262 270.383 495.043 269.84 494.605 269.426C494.176 269.012 493.609 268.805 492.906 268.805C492.094 268.805 491.457 269.062 490.996 269.578C490.543 270.086 490.355 270.723 490.434 271.488H487.75C487.688 270.496 487.875 269.609 488.312 268.828C488.758 268.039 489.395 267.426 490.223 266.988C491.059 266.551 492.004 266.332 493.059 266.332C494.035 266.332 494.898 266.52 495.648 266.895C496.398 267.27 496.98 267.801 497.395 268.488C497.816 269.176 498.027 269.969 498.027 270.867C498.027 271.844 497.824 272.68 497.418 273.375C497.02 274.07 496.484 274.801 495.812 275.566L492.285 279.527Z" fill="#035755"/>
<path d="M530.348 267.383C530.947 266.663 532.053 266.663 532.652 267.383L540.95 277.34C541.764 278.317 541.069 279.8 539.797 279.8H523.203C521.931 279.8 521.236 278.317 522.05 277.34L530.348 267.383Z" fill="#F44A45"/>
<path d="M227.574 497.771C227.574 496.55 227.867 495.486 228.452 494.578C229.048 493.669 229.88 492.968 230.95 492.474C232.029 491.979 233.271 491.732 234.673 491.732C236.056 491.732 237.287 491.974 238.367 492.458C239.446 492.943 240.289 493.629 240.895 494.517C241.5 495.405 241.803 496.439 241.803 497.62H238.064C238.044 496.772 237.706 496.091 237.05 495.577C236.404 495.052 235.551 494.79 234.492 494.79C233.523 494.79 232.746 495.032 232.161 495.516C231.585 495.99 231.298 496.606 231.298 497.363C231.298 498.11 231.55 498.66 232.055 499.013C232.569 499.366 233.25 499.643 234.098 499.845L237.353 500.647C238.836 501.001 240.037 501.652 240.955 502.6C241.873 503.539 242.333 504.75 242.333 506.233C242.333 507.474 242.02 508.559 241.394 509.487C240.778 510.416 239.901 511.137 238.76 511.652C237.63 512.156 236.313 512.409 234.81 512.409C232.579 512.409 230.763 511.869 229.36 510.789C227.968 509.699 227.211 508.221 227.09 506.354H230.829C230.869 507.282 231.257 508.014 231.994 508.549C232.731 509.074 233.689 509.336 234.87 509.336C236.01 509.336 236.903 509.094 237.549 508.609C238.195 508.125 238.518 507.459 238.518 506.611C238.518 505.885 238.291 505.335 237.837 504.961C237.383 504.588 236.787 504.311 236.051 504.129L232.721 503.327C231.086 502.933 229.819 502.277 228.921 501.359C228.023 500.431 227.574 499.235 227.574 497.771ZM253.276 497.741C254.578 497.741 255.739 498.049 256.758 498.665C257.777 499.27 258.574 500.128 259.149 501.238C259.735 502.338 260.027 503.609 260.027 505.052C260.027 506.495 259.735 507.777 259.149 508.897C258.574 510.017 257.777 510.885 256.758 511.5C255.739 512.106 254.563 512.409 253.231 512.409C252.242 512.409 251.344 512.242 250.537 511.909C249.729 511.576 249.089 511.102 248.614 510.486V518.357H245.178V498.18H248.024L248.281 500.163C248.776 499.416 249.462 498.826 250.34 498.392C251.218 497.958 252.197 497.741 253.276 497.741ZM252.58 509.275C253.761 509.275 254.704 508.887 255.411 508.11C256.127 507.333 256.485 506.324 256.485 505.083C256.485 503.821 256.127 502.807 255.411 502.04C254.704 501.263 253.771 500.875 252.61 500.875C251.45 500.875 250.506 501.263 249.78 502.04C249.063 502.807 248.705 503.831 248.705 505.113C248.705 506.374 249.063 507.383 249.78 508.14C250.496 508.897 251.43 509.275 252.58 509.275ZM277.117 498.18V512H273.802V510.047C273.327 510.774 272.646 511.349 271.758 511.773C270.88 512.197 269.896 512.409 268.807 512.409C267.525 512.409 266.385 512.111 265.386 511.516C264.397 510.91 263.63 510.062 263.085 508.973C262.54 507.873 262.268 506.596 262.268 505.143C262.268 503.68 262.555 502.388 263.13 501.268C263.706 500.138 264.508 499.27 265.537 498.665C266.576 498.049 267.767 497.741 269.109 497.741C270.159 497.741 271.102 497.933 271.94 498.316C272.788 498.7 273.459 499.24 273.953 499.936L274.226 498.18H277.117ZM269.669 509.275C270.83 509.275 271.773 508.882 272.5 508.095C273.237 507.308 273.605 506.283 273.605 505.022C273.605 503.761 273.247 502.751 272.53 501.995C271.824 501.228 270.88 500.844 269.7 500.844C268.519 500.844 267.57 501.233 266.854 502.01C266.148 502.777 265.794 503.791 265.794 505.052C265.794 506.314 266.153 507.333 266.869 508.11C267.586 508.887 268.519 509.275 269.669 509.275ZM282.672 495.471C281.965 495.471 281.385 495.249 280.931 494.805C280.477 494.361 280.25 493.811 280.25 493.155C280.25 492.489 280.477 491.939 280.931 491.505C281.385 491.071 281.965 490.854 282.672 490.854C283.378 490.854 283.948 491.071 284.382 491.505C284.826 491.939 285.048 492.489 285.048 493.155C285.048 493.791 284.821 494.335 284.367 494.79C283.913 495.244 283.348 495.471 282.672 495.471ZM280.931 498.18H284.397V512H280.931V498.18ZM295.826 497.741C297.43 497.741 298.697 498.251 299.625 499.27C300.563 500.279 301.033 501.672 301.033 503.448V512H297.551V504.25C297.551 502 296.633 500.875 294.796 500.875C293.807 500.875 293.041 501.162 292.496 501.737C291.961 502.312 291.693 503.09 291.693 504.068V512H288.257V498.18H291.133L291.391 499.845C291.825 499.209 292.44 498.7 293.237 498.316C294.035 497.933 294.897 497.741 295.826 497.741Z" fill="#13615F"/>
<rect x="150" y="483" width="49" height="35" rx="2.64865" fill="white"/>
<mask id="mask3" mask-type="alpha" maskUnits="userSpaceOnUse" x="150" y="483" width="49" height="35">
<rect x="150" y="483" width="49" height="35" rx="2.64865" fill="white"/>
</mask>
<g mask="url(#mask3)">
<path fill-rule="evenodd" clip-rule="evenodd" d="M150 492.333H199V483H150V492.333Z" fill="#DD172C"/>
<path fill-rule="evenodd" clip-rule="evenodd" d="M150 518H199V508.667H150V518Z" fill="#DD172C"/>
<path fill-rule="evenodd" clip-rule="evenodd" d="M150 508.666H199V492.333H150V508.666Z" fill="#FFD133"/>
<path fill-rule="evenodd" clip-rule="evenodd" d="M162.835 499.333H165.168V500.5H162.835V499.333Z" fill="#FFEDB1"/>
<path d="M160.436 499.087C160.415 498.829 160.618 498.608 160.876 498.608H164.791C165.049 498.608 165.252 498.829 165.231 499.087L164.862 503.511C164.805 504.198 164.231 504.726 163.542 504.726H162.125C161.436 504.726 160.862 504.198 160.805 503.511L160.436 499.087Z" stroke="#A41517" stroke-width="0.882883"/>
<path fill-rule="evenodd" clip-rule="evenodd" d="M160.499 500.5H165.166V501.667H163.999L162.832 504L161.666 501.667H160.499V500.5Z" fill="#A41517"/>
<rect x="156.999" y="497" width="2.33333" height="8.16667" rx="0.882883" fill="#A41517"/>
<rect x="166.334" y="497" width="2.33333" height="8.16667" rx="0.882883" fill="#A41517"/>
<path d="M160.499 496.433C160.499 495.457 161.289 494.667 162.265 494.667H163.4C164.375 494.667 165.166 495.457 165.166 496.433V496.559C165.166 496.802 164.968 497 164.724 497H160.94C160.697 497 160.499 496.802 160.499 496.559V496.433Z" fill="#A41517"/>
</g>
<path d="M433.375 499.781C434.398 499.781 435.32 499.992 436.141 500.414C436.969 500.836 437.617 501.438 438.086 502.219C438.562 502.992 438.801 503.883 438.801 504.891C438.801 505.914 438.547 506.836 438.039 507.656C437.539 508.469 436.84 509.102 435.941 509.555C435.051 510.008 434.035 510.234 432.895 510.234C431.762 510.234 430.77 510.008 429.918 509.555C429.074 509.102 428.418 508.477 427.949 507.68C427.488 506.875 427.258 505.977 427.258 504.984C427.258 504.023 427.445 503.145 427.82 502.348C428.195 501.543 428.703 500.688 429.344 499.781L432.848 494.613H435.848L432.156 499.898C432.492 499.82 432.898 499.781 433.375 499.781ZM433 507.82C433.859 507.82 434.582 507.555 435.168 507.023C435.754 506.492 436.047 505.797 436.047 504.938C436.047 504.086 435.762 503.406 435.191 502.898C434.621 502.383 433.914 502.125 433.07 502.125C432.203 502.125 431.477 502.383 430.891 502.898C430.312 503.406 430.023 504.094 430.023 504.961C430.023 505.828 430.305 506.523 430.867 507.047C431.438 507.562 432.148 507.82 433 507.82ZM452.23 504.551V506.859H450.309V510H447.648V506.859H440.547V504.773L446.898 494.613H450.309V504.551H452.23ZM447.648 504.551V497.836L443.441 504.551H447.648ZM455.582 506.684C456.16 506.684 456.645 506.887 457.035 507.293C457.426 507.691 457.621 508.227 457.621 508.898C457.621 509.984 457.266 510.891 456.555 511.617C455.844 512.344 454.93 512.758 453.812 512.859V512.016C454.516 511.906 455.059 511.656 455.441 511.266C455.824 510.883 456.008 510.445 455.992 509.953C455.836 510.031 455.637 510.07 455.395 510.07C454.934 510.07 454.547 509.926 454.234 509.637C453.922 509.348 453.766 508.957 453.766 508.465C453.766 507.949 453.934 507.523 454.27 507.188C454.605 506.852 455.043 506.684 455.582 506.684ZM465.016 510.27C463.797 510.27 462.742 509.949 461.852 509.309C460.969 508.668 460.293 507.754 459.824 506.566C459.363 505.371 459.133 503.957 459.133 502.324C459.133 499.848 459.648 497.898 460.68 496.477C461.711 495.047 463.156 494.332 465.016 494.332C466.25 494.332 467.309 494.652 468.191 495.293C469.082 495.926 469.762 496.844 470.23 498.047C470.707 499.25 470.945 500.676 470.945 502.324C470.945 503.957 470.707 505.371 470.23 506.566C469.762 507.754 469.082 508.668 468.191 509.309C467.301 509.949 466.242 510.27 465.016 510.27ZM465.039 507.82C466.062 507.82 466.832 507.344 467.348 506.391C467.871 505.438 468.133 504.082 468.133 502.324C468.133 500.566 467.871 499.207 467.348 498.246C466.832 497.285 466.062 496.805 465.039 496.805C464.016 496.805 463.238 497.281 462.707 498.234C462.184 499.18 461.922 500.543 461.922 502.324C461.922 504.066 462.184 505.418 462.707 506.379C463.238 507.34 464.016 507.82 465.039 507.82ZM478.984 499.875C479.992 499.875 480.891 500.094 481.68 500.531C482.477 500.969 483.098 501.578 483.543 502.359C483.996 503.133 484.223 504.008 484.223 504.984C484.223 506.008 483.969 506.918 483.461 507.715C482.961 508.504 482.277 509.117 481.41 509.555C480.551 509.992 479.582 510.211 478.504 510.211C477.434 510.211 476.477 509.996 475.633 509.566C474.797 509.137 474.141 508.535 473.664 507.762C473.195 506.98 472.961 506.086 472.961 505.078H475.68C475.68 505.875 475.941 506.531 476.465 507.047C476.996 507.562 477.668 507.82 478.48 507.82C479.332 507.82 480.035 507.555 480.59 507.023C481.152 506.492 481.434 505.805 481.434 504.961C481.434 504.133 481.164 503.457 480.625 502.934C480.094 502.41 479.387 502.148 478.504 502.148C477.957 502.148 477.449 502.258 476.98 502.477C476.512 502.695 476.148 502.988 475.891 503.355L473.277 503.039L475.27 494.613H483.309V496.992H477.332L476.441 500.473C477.129 500.074 477.977 499.875 478.984 499.875ZM492.25 494.332C493.383 494.332 494.379 494.562 495.238 495.023C496.105 495.484 496.77 496.117 497.23 496.922C497.699 497.719 497.934 498.621 497.934 499.629C497.934 500.301 497.828 500.945 497.617 501.562C497.414 502.18 497.18 502.711 496.914 503.156C496.648 503.594 496.285 504.148 495.824 504.82L492.32 510H489.32L493.012 504.738C492.566 504.816 492.16 504.859 491.793 504.867C490.77 504.867 489.848 504.652 489.027 504.223C488.215 503.785 487.57 503.176 487.094 502.395C486.625 501.605 486.391 500.715 486.391 499.723C486.391 498.684 486.641 497.754 487.141 496.934C487.648 496.105 488.348 495.465 489.238 495.012C490.129 494.559 491.133 494.332 492.25 494.332ZM489.156 499.652C489.156 500.504 489.434 501.188 489.988 501.703C490.551 502.211 491.258 502.465 492.109 502.465C492.992 502.465 493.719 502.211 494.289 501.703C494.867 501.188 495.156 500.504 495.156 499.652C495.156 498.785 494.871 498.098 494.301 497.59C493.73 497.082 493.023 496.828 492.18 496.828C491.312 496.828 490.59 497.094 490.012 497.625C489.441 498.148 489.156 498.824 489.156 499.652Z" fill="#035755"/>
<path d="M530.348 495.383C530.947 494.663 532.053 494.663 532.652 495.383L540.95 505.34C541.764 506.317 541.069 507.8 539.797 507.8H523.203C521.931 507.8 521.236 506.317 522.05 505.34L530.348 495.383Z" fill="#F44A45"/>
<path d="M247.146 577.208V579.1C247.146 580.936 246.722 582.561 245.875 583.974C245.027 585.376 243.846 586.466 242.333 587.243C240.829 588.02 239.113 588.409 237.186 588.409C235.178 588.409 233.417 587.985 231.903 587.137C230.39 586.29 229.214 585.099 228.376 583.565C227.539 582.021 227.12 580.235 227.12 578.207C227.12 576.138 227.549 574.316 228.407 572.742C229.264 571.158 230.465 569.927 232.009 569.049C233.563 568.171 235.344 567.732 237.353 567.732C238.967 567.732 240.43 568.014 241.742 568.58C243.064 569.145 244.159 569.942 245.027 570.971C245.895 571.99 246.465 573.161 246.737 574.483H242.862C242.469 573.413 241.772 572.581 240.773 571.985C239.774 571.38 238.599 571.077 237.247 571.077C235.279 571.077 233.725 571.723 232.584 573.015C231.444 574.306 230.874 576.017 230.874 578.146C230.874 580.275 231.449 581.955 232.6 583.187C233.76 584.408 235.319 585.018 237.277 585.018C238.912 585.018 240.264 584.609 241.333 583.792C242.413 582.965 243.059 581.804 243.271 580.311H236.974V577.208H247.146ZM263.312 583.686C263.009 585.099 262.237 586.239 260.996 587.107C259.755 587.975 258.277 588.409 256.561 588.409C255.138 588.409 253.882 588.101 252.792 587.485C251.712 586.86 250.87 585.992 250.264 584.882C249.669 583.762 249.371 582.475 249.371 581.022C249.371 579.559 249.674 578.282 250.279 577.192C250.895 576.092 251.737 575.245 252.807 574.649C253.887 574.044 255.108 573.741 256.47 573.741C257.812 573.741 258.998 574.029 260.027 574.604C261.067 575.169 261.869 575.946 262.434 576.935C262.999 577.924 263.282 579.059 263.282 580.341C263.282 581.027 263.231 581.597 263.13 582.051H252.777C252.817 583.101 253.181 583.948 253.867 584.594C254.563 585.23 255.461 585.548 256.561 585.548C257.389 585.548 258.1 585.386 258.695 585.063C259.301 584.73 259.715 584.271 259.937 583.686H263.312ZM259.755 579.72C259.735 578.751 259.412 577.99 258.786 577.435C258.171 576.869 257.368 576.587 256.379 576.587C255.37 576.587 254.538 576.875 253.882 577.45C253.226 578.015 252.878 578.772 252.837 579.72H259.755ZM273.015 574.044C273.469 574.054 273.903 574.099 274.316 574.18V577.147C273.943 577.107 273.671 577.086 273.499 577.086C272.258 577.086 271.299 577.435 270.623 578.131C269.957 578.817 269.624 579.791 269.624 581.052V588H266.158V574.18H269.291L269.594 576.163C269.796 575.477 270.204 574.952 270.82 574.589C271.435 574.226 272.167 574.044 273.015 574.044ZM293.025 573.741C294.519 573.741 295.725 574.2 296.643 575.119C297.561 576.037 298.021 577.293 298.021 578.888V588H294.584V579.72C294.584 578.731 294.347 577.99 293.873 577.495C293.409 577.001 292.788 576.753 292.011 576.753C291.103 576.753 290.392 577.046 289.877 577.631C289.372 578.217 289.12 578.963 289.12 579.872V588H285.714V579.72C285.714 578.792 285.477 578.065 285.003 577.541C284.529 577.016 283.878 576.753 283.05 576.753C282.203 576.753 281.521 577.051 281.007 577.646C280.502 578.242 280.25 578.984 280.25 579.872V588H276.784V574.18H279.947L280.129 575.664C280.543 575.068 281.103 574.599 281.809 574.256C282.526 573.913 283.287 573.741 284.095 573.741C285.104 573.741 286.007 573.973 286.804 574.438C287.601 574.902 288.177 575.537 288.53 576.345C288.944 575.517 289.539 574.876 290.316 574.422C291.093 573.968 291.996 573.741 293.025 573.741ZM315.746 574.18V588H312.431V586.047C311.956 586.774 311.275 587.349 310.387 587.773C309.509 588.197 308.525 588.409 307.436 588.409C306.154 588.409 305.014 588.111 304.015 587.516C303.026 586.91 302.259 586.062 301.714 584.973C301.169 583.873 300.896 582.596 300.896 581.143C300.896 579.68 301.184 578.388 301.759 577.268C302.334 576.138 303.137 575.27 304.166 574.665C305.205 574.049 306.396 573.741 307.738 573.741C308.788 573.741 309.731 573.933 310.569 574.316C311.417 574.7 312.088 575.24 312.582 575.936L312.854 574.18H315.746ZM308.298 585.275C309.459 585.275 310.402 584.882 311.129 584.095C311.866 583.308 312.234 582.283 312.234 581.022C312.234 579.761 311.876 578.751 311.159 577.995C310.453 577.228 309.509 576.844 308.329 576.844C307.148 576.844 306.199 577.233 305.483 578.01C304.777 578.777 304.423 579.791 304.423 581.052C304.423 582.314 304.782 583.333 305.498 584.11C306.215 584.887 307.148 585.275 308.298 585.275ZM327.098 573.741C328.703 573.741 329.969 574.251 330.897 575.27C331.836 576.279 332.305 577.672 332.305 579.448V588H328.824V580.25C328.824 578 327.905 576.875 326.069 576.875C325.08 576.875 324.313 577.162 323.768 577.737C323.233 578.312 322.966 579.09 322.966 580.068V588H319.53V574.18H322.406L322.663 575.845C323.097 575.209 323.713 574.7 324.51 574.316C325.307 573.933 326.17 573.741 327.098 573.741ZM349.152 574.18L342.795 590.452C342.28 591.734 341.614 592.743 340.797 593.479C339.979 594.226 338.794 594.6 337.24 594.6C336.392 594.6 335.555 594.499 334.727 594.297L334.772 591.436C335.539 591.577 336.165 591.653 336.649 591.663C337.598 591.663 338.279 591.486 338.693 591.133C339.117 590.78 339.45 590.24 339.692 589.514L340.07 588.56L334.152 574.18H337.891L341.645 584.307L345.489 574.18H349.152Z" fill="#13615F"/>
<rect x="150" y="559" width="49" height="35" rx="2.69231" fill="white"/>
<mask id="mask4" mask-type="alpha" maskUnits="userSpaceOnUse" x="150" y="559" width="49" height="35">
<rect x="150" y="559" width="49" height="35" rx="2.69231" fill="white"/>
</mask>
<g mask="url(#mask4)">
<path fill-rule="evenodd" clip-rule="evenodd" d="M150 570.667H199V559H150V570.667Z" fill="#262626"/>
<g filter="url(#filter2_d)">
<path fill-rule="evenodd" clip-rule="evenodd" d="M150 582.333H199V570.667H150V582.333Z" fill="#F01515"/>
</g>
<g filter="url(#filter3_d)">
<path fill-rule="evenodd" clip-rule="evenodd" d="M150 594H199V582.333H150V594Z" fill="#FFD521"/>
</g>
</g>
<path d="M440.992 575.875C442 575.875 442.898 576.094 443.688 576.531C444.484 576.969 445.105 577.578 445.551 578.359C446.004 579.133 446.23 580.008 446.23 580.984C446.23 582.008 445.977 582.918 445.469 583.715C444.969 584.504 444.285 585.117 443.418 585.555C442.559 585.992 441.59 586.211 440.512 586.211C439.441 586.211 438.484 585.996 437.641 585.566C436.805 585.137 436.148 584.535 435.672 583.762C435.203 582.98 434.969 582.086 434.969 581.078H437.688C437.688 581.875 437.949 582.531 438.473 583.047C439.004 583.562 439.676 583.82 440.488 583.82C441.34 583.82 442.043 583.555 442.598 583.023C443.16 582.492 443.441 581.805 443.441 580.961C443.441 580.133 443.172 579.457 442.633 578.934C442.102 578.41 441.395 578.148 440.512 578.148C439.965 578.148 439.457 578.258 438.988 578.477C438.52 578.695 438.156 578.988 437.898 579.355L435.285 579.039L437.277 570.613H445.316V572.992H439.34L438.449 576.473C439.137 576.074 439.984 575.875 440.992 575.875ZM454.117 586.27C452.898 586.27 451.844 585.949 450.953 585.309C450.07 584.668 449.395 583.754 448.926 582.566C448.465 581.371 448.234 579.957 448.234 578.324C448.234 575.848 448.75 573.898 449.781 572.477C450.812 571.047 452.258 570.332 454.117 570.332C455.352 570.332 456.41 570.652 457.293 571.293C458.184 571.926 458.863 572.844 459.332 574.047C459.809 575.25 460.047 576.676 460.047 578.324C460.047 579.957 459.809 581.371 459.332 582.566C458.863 583.754 458.184 584.668 457.293 585.309C456.402 585.949 455.344 586.27 454.117 586.27ZM454.141 583.82C455.164 583.82 455.934 583.344 456.449 582.391C456.973 581.438 457.234 580.082 457.234 578.324C457.234 576.566 456.973 575.207 456.449 574.246C455.934 573.285 455.164 572.805 454.141 572.805C453.117 572.805 452.34 573.281 451.809 574.234C451.285 575.18 451.023 576.543 451.023 578.324C451.023 580.066 451.285 581.418 451.809 582.379C452.34 583.34 453.117 583.82 454.141 583.82ZM462.777 582.684C463.355 582.684 463.84 582.887 464.23 583.293C464.621 583.691 464.816 584.227 464.816 584.898C464.816 585.984 464.461 586.891 463.75 587.617C463.039 588.344 462.125 588.758 461.008 588.859V588.016C461.711 587.906 462.254 587.656 462.637 587.266C463.02 586.883 463.203 586.445 463.188 585.953C463.031 586.031 462.832 586.07 462.59 586.07C462.129 586.07 461.742 585.926 461.43 585.637C461.117 585.348 460.961 584.957 460.961 584.465C460.961 583.949 461.129 583.523 461.465 583.188C461.801 582.852 462.238 582.684 462.777 582.684ZM475.445 577.82C476.195 578.125 476.781 578.613 477.203 579.285C477.625 579.957 477.836 580.723 477.836 581.582C477.836 582.527 477.59 583.348 477.098 584.043C476.613 584.738 475.949 585.273 475.105 585.648C474.27 586.023 473.324 586.211 472.27 586.211C471.199 586.211 470.234 586.023 469.375 585.648C468.523 585.273 467.855 584.734 467.371 584.031C466.895 583.328 466.656 582.504 466.656 581.559C466.656 580.691 466.871 579.93 467.301 579.273C467.738 578.609 468.316 578.117 469.035 577.797C468.473 577.461 468.02 576.996 467.676 576.402C467.332 575.809 467.16 575.168 467.16 574.48C467.16 573.684 467.375 572.973 467.805 572.348C468.242 571.723 468.848 571.23 469.621 570.871C470.395 570.512 471.277 570.332 472.27 570.332C473.262 570.332 474.141 570.512 474.906 570.871C475.68 571.23 476.281 571.727 476.711 572.359C477.141 572.992 477.355 573.707 477.355 574.504C477.355 575.223 477.18 575.879 476.828 576.473C476.477 577.066 476.016 577.516 475.445 577.82ZM472.246 572.723C471.543 572.723 470.969 572.91 470.523 573.285C470.086 573.652 469.867 574.129 469.867 574.715C469.867 575.324 470.094 575.82 470.547 576.203C471.008 576.578 471.582 576.766 472.27 576.766C472.957 576.766 473.523 576.578 473.969 576.203C474.422 575.82 474.648 575.332 474.648 574.738C474.648 574.129 474.426 573.641 473.98 573.273C473.543 572.906 472.965 572.723 472.246 572.723ZM472.246 583.82C473.082 583.82 473.762 583.602 474.285 583.164C474.816 582.719 475.082 582.145 475.082 581.441C475.082 580.723 474.816 580.152 474.285 579.73C473.762 579.301 473.09 579.086 472.27 579.086C471.441 579.086 470.758 579.301 470.219 579.73C469.68 580.152 469.41 580.715 469.41 581.418C469.41 582.137 469.68 582.719 470.219 583.164C470.758 583.602 471.434 583.82 472.246 583.82ZM489.402 570.613V572.758L483.332 586H480.426L486.355 572.992H479.301V570.613H489.402ZM490.703 573.156C491.969 573.156 492.922 572.945 493.562 572.523C494.211 572.102 494.641 571.465 494.852 570.613H497.277V586H494.535V575.219H490.703V573.156Z" fill="#035755"/>
<path d="M530.348 571.383C530.947 570.663 532.053 570.663 532.652 571.383L540.95 581.34C541.764 582.317 541.069 583.8 539.797 583.8H523.203C521.931 583.8 521.236 582.317 522.05 581.34L530.348 571.383Z" fill="#F44A45"/>
<path d="M228.225 664V644.125H231.858V664H228.225ZM242.681 650.044C243.135 650.054 243.569 650.099 243.982 650.18V653.147C243.609 653.107 243.337 653.086 243.165 653.086C241.924 653.086 240.965 653.435 240.289 654.131C239.623 654.817 239.29 655.791 239.29 657.052V664H235.824V650.18H238.957L239.26 652.163C239.462 651.477 239.87 650.952 240.486 650.589C241.101 650.226 241.833 650.044 242.681 650.044ZM260.315 650.18V664H257V662.047C256.526 662.774 255.845 663.349 254.957 663.773C254.079 664.197 253.095 664.409 252.005 664.409C250.723 664.409 249.583 664.111 248.584 663.516C247.595 662.91 246.828 662.062 246.283 660.973C245.738 659.873 245.466 658.596 245.466 657.143C245.466 655.68 245.753 654.388 246.329 653.268C246.904 652.138 247.706 651.27 248.735 650.665C249.775 650.049 250.965 649.741 252.308 649.741C253.357 649.741 254.301 649.933 255.138 650.316C255.986 650.7 256.657 651.24 257.151 651.936L257.424 650.18H260.315ZM252.868 661.275C254.028 661.275 254.972 660.882 255.698 660.095C256.435 659.308 256.803 658.283 256.803 657.022C256.803 655.761 256.445 654.751 255.729 653.995C255.022 653.228 254.079 652.844 252.898 652.844C251.717 652.844 250.769 653.233 250.052 654.01C249.346 654.777 248.993 655.791 248.993 657.052C248.993 658.314 249.351 659.333 250.067 660.11C250.784 660.887 251.717 661.275 252.868 661.275ZM271.667 649.741C273.272 649.741 274.538 650.251 275.467 651.27C276.405 652.279 276.875 653.672 276.875 655.448V664H273.393V656.25C273.393 654 272.475 652.875 270.638 652.875C269.649 652.875 268.882 653.162 268.337 653.737C267.803 654.312 267.535 655.09 267.535 656.068V664H264.099V650.18H266.975L267.232 651.845C267.666 651.209 268.282 650.7 269.079 650.316C269.876 649.933 270.739 649.741 271.667 649.741Z" fill="#13615F"/>
<rect x="150.337" y="635.337" width="48.3269" height="34.3269" rx="2.35577" fill="white" stroke="#F5F5F5" stroke-width="0.673077"/>
<mask id="mask5" mask-type="alpha" maskUnits="userSpaceOnUse" x="150" y="635" width="49" height="35">
<rect x="150.337" y="635.337" width="48.3269" height="34.3269" rx="2.35577" fill="white" stroke="white" stroke-width="0.673077"/>
</mask>
<g mask="url(#mask5)">
<path fill-rule="evenodd" clip-rule="evenodd" d="M150 646.667H199V635H150V646.667Z" fill="#38BB56"/>
<path fill-rule="evenodd" clip-rule="evenodd" d="M150 670H199V658.333H150V670Z" fill="#DE1B27"/>
<path fill-rule="evenodd" clip-rule="evenodd" d="M152.781 644.333C152.533 644.333 152.332 644.534 152.332 644.782V646.218C152.332 646.465 152.533 646.666 152.781 646.666H154.217C154.465 646.666 154.665 646.465 154.665 646.218V644.782C154.665 644.534 154.465 644.333 154.217 644.333H152.781ZM157.448 644.333C157.2 644.333 156.999 644.534 156.999 644.782V646.218C156.999 646.465 157.2 646.666 157.448 646.666H158.884C159.131 646.666 159.332 646.465 159.332 646.218V644.782C159.332 644.534 159.131 644.333 158.884 644.333H157.448ZM161.666 644.782C161.666 644.534 161.867 644.333 162.115 644.333H163.55C163.798 644.333 163.999 644.534 163.999 644.782V646.218C163.999 646.465 163.798 646.666 163.55 646.666H162.115C161.867 646.666 161.666 646.465 161.666 646.218V644.782ZM166.781 644.333C166.534 644.333 166.333 644.534 166.333 644.782V646.218C166.333 646.465 166.534 646.666 166.781 646.666H168.217C168.465 646.666 168.666 646.465 168.666 646.218V644.782C168.666 644.534 168.465 644.333 168.217 644.333H166.781ZM171 644.782C171 644.534 171.2 644.333 171.448 644.333H172.884C173.132 644.333 173.333 644.534 173.333 644.782V646.218C173.333 646.465 173.132 646.666 172.884 646.666H171.448C171.2 646.666 171 646.465 171 646.218V644.782ZM176.115 644.333C175.867 644.333 175.666 644.534 175.666 644.782V646.218C175.666 646.465 175.867 646.666 176.115 646.666H177.551C177.799 646.666 178 646.465 178 646.218V644.782C178 644.534 177.799 644.333 177.551 644.333H176.115ZM180.333 644.782C180.333 644.534 180.534 644.333 180.782 644.333H182.218C182.466 644.333 182.667 644.534 182.667 644.782V646.218C182.667 646.465 182.466 646.666 182.218 646.666H180.782C180.534 646.666 180.333 646.465 180.333 646.218V644.782ZM185.449 644.333C185.201 644.333 185 644.534 185 644.782V646.218C185 646.465 185.201 646.666 185.449 646.666H186.885C187.132 646.666 187.333 646.465 187.333 646.218V644.782C187.333 644.534 187.132 644.333 186.885 644.333H185.449ZM189.664 644.782C189.664 644.534 189.865 644.333 190.113 644.333H191.549C191.797 644.333 191.998 644.534 191.998 644.782V646.218C191.998 646.465 191.797 646.666 191.549 646.666H190.113C189.865 646.666 189.664 646.465 189.664 646.218V644.782ZM194.78 644.333C194.532 644.333 194.331 644.534 194.331 644.782V646.218C194.331 646.465 194.532 646.666 194.78 646.666H196.216C196.464 646.666 196.664 646.465 196.664 646.218V644.782C196.664 644.534 196.464 644.333 196.216 644.333H194.78ZM152.332 658.782C152.332 658.534 152.533 658.333 152.781 658.333H154.217C154.465 658.333 154.665 658.534 154.665 658.782V660.217C154.665 660.465 154.465 660.666 154.217 660.666H152.781C152.533 660.666 152.332 660.465 152.332 660.217V658.782ZM157.448 658.333C157.2 658.333 156.999 658.534 156.999 658.782V660.217C156.999 660.465 157.2 660.666 157.448 660.666H158.884C159.131 660.666 159.332 660.465 159.332 660.217V658.782C159.332 658.534 159.131 658.333 158.884 658.333H157.448ZM161.666 658.782C161.666 658.534 161.867 658.333 162.115 658.333H163.55C163.798 658.333 163.999 658.534 163.999 658.782V660.217C163.999 660.465 163.798 660.666 163.55 660.666H162.115C161.867 660.666 161.666 660.465 161.666 660.217V658.782ZM166.781 658.333C166.534 658.333 166.333 658.534 166.333 658.782V660.217C166.333 660.465 166.534 660.666 166.781 660.666H168.217C168.465 660.666 168.666 660.465 168.666 660.217V658.782C168.666 658.534 168.465 658.333 168.217 658.333H166.781ZM171 658.782C171 658.534 171.2 658.333 171.448 658.333H172.884C173.132 658.333 173.333 658.534 173.333 658.782V660.217C173.333 660.465 173.132 660.666 172.884 660.666H171.448C171.2 660.666 171 660.465 171 660.217V658.782ZM176.115 658.333C175.867 658.333 175.666 658.534 175.666 658.782V660.217C175.666 660.465 175.867 660.666 176.115 660.666H177.551C177.799 660.666 178 660.465 178 660.217V658.782C178 658.534 177.799 658.333 177.551 658.333H176.115ZM180.333 658.782C180.333 658.534 180.534 658.333 180.782 658.333H182.218C182.466 658.333 182.667 658.534 182.667 658.782V660.217C182.667 660.465 182.466 660.666 182.218 660.666H180.782C180.534 660.666 180.333 660.465 180.333 660.217V658.782ZM185.449 658.333C185.201 658.333 185 658.534 185 658.782V660.217C185 660.465 185.201 660.666 185.449 660.666H186.885C187.132 660.666 187.333 660.465 187.333 660.217V658.782C187.333 658.534 187.132 658.333 186.885 658.333H185.449ZM189.664 658.782C189.664 658.534 189.865 658.333 190.113 658.333H191.549C191.797 658.333 191.998 658.534 191.998 658.782V660.217C191.998 660.465 191.797 660.666 191.549 660.666H190.113C189.865 660.666 189.664 660.465 189.664 660.217V658.782ZM194.78 658.333C194.532 658.333 194.331 658.534 194.331 658.782V660.217C194.331 660.465 194.532 660.666 194.78 660.666H196.216C196.464 660.666 196.664 660.465 196.664 660.217V658.782C196.664 658.534 196.464 658.333 196.216 658.333H194.78Z" fill="white" fill-opacity="0.5"/>
<mask id="path-53-inside-1" fill="white">
<path fill-rule="evenodd" clip-rule="evenodd" d="M172.143 649.912C171.44 650.552 171 651.475 171 652.5C171 654.433 172.567 656 174.5 656C176.433 656 178 654.433 178 652.5C178 651.494 177.575 650.587 176.895 649.949"/>
</mask>
<path d="M171.539 649.249C170.657 650.052 170.102 651.212 170.102 652.5H171.897C171.897 651.738 172.224 651.053 172.748 650.576L171.539 649.249ZM170.102 652.5C170.102 654.929 172.071 656.898 174.5 656.898V655.103C173.062 655.103 171.897 653.937 171.897 652.5H170.102ZM174.5 656.898C176.928 656.898 178.897 654.929 178.897 652.5H177.102C177.102 653.937 175.937 655.103 174.5 655.103V656.898ZM178.897 652.5C178.897 651.236 178.362 650.096 177.51 649.295L176.281 650.603C176.788 651.079 177.102 651.752 177.102 652.5H178.897Z" fill="#D80915" mask="url(#path-53-inside-1)"/>
<rect x="173.334" y="651.333" width="2.33333" height="4.66667" rx="0.897436" fill="#D80915"/>
</g>
<path d="M437.477 652.496C438.781 652.637 439.824 653.129 440.605 653.973C441.395 654.809 441.789 655.875 441.789 657.172C441.789 658.164 441.547 659.047 441.062 659.82C440.586 660.586 439.922 661.18 439.07 661.602C438.227 662.023 437.27 662.234 436.199 662.234C435.145 662.234 434.195 662.023 433.352 661.602C432.516 661.18 431.863 660.578 431.395 659.797C430.934 659.008 430.711 658.102 430.727 657.078H433.434C433.434 657.891 433.695 658.551 434.219 659.059C434.742 659.566 435.418 659.82 436.246 659.82C437.059 659.82 437.73 659.574 438.262 659.082C438.793 658.582 439.059 657.922 439.059 657.102C439.059 656.336 438.824 655.73 438.355 655.285C437.895 654.832 437.273 654.574 436.492 654.512C436.219 654.48 435.672 654.465 434.852 654.465H433.961V652.613L437.641 648.992H431.641V646.613H441.051V648.945L437.477 652.496ZM448.293 659.527H453.988V662H444.262V660.031L449.734 654.102C450.195 653.609 450.566 653.125 450.848 652.648C451.129 652.164 451.27 651.633 451.27 651.055C451.27 650.383 451.051 649.84 450.613 649.426C450.184 649.012 449.617 648.805 448.914 648.805C448.102 648.805 447.465 649.062 447.004 649.578C446.551 650.086 446.363 650.723 446.441 651.488H443.758C443.695 650.496 443.883 649.609 444.32 648.828C444.766 648.039 445.402 647.426 446.23 646.988C447.066 646.551 448.012 646.332 449.066 646.332C450.043 646.332 450.906 646.52 451.656 646.895C452.406 647.27 452.988 647.801 453.402 648.488C453.824 649.176 454.035 649.969 454.035 650.867C454.035 651.844 453.832 652.68 453.426 653.375C453.027 654.07 452.492 654.801 451.82 655.566L448.293 659.527ZM457.621 658.684C458.199 658.684 458.684 658.887 459.074 659.293C459.465 659.691 459.66 660.227 459.66 660.898C459.66 661.984 459.305 662.891 458.594 663.617C457.883 664.344 456.969 664.758 455.852 664.859V664.016C456.555 663.906 457.098 663.656 457.48 663.266C457.863 662.883 458.047 662.445 458.031 661.953C457.875 662.031 457.676 662.07 457.434 662.07C456.973 662.07 456.586 661.926 456.273 661.637C455.961 661.348 455.805 660.957 455.805 660.465C455.805 659.949 455.973 659.523 456.309 659.188C456.645 658.852 457.082 658.684 457.621 658.684ZM468.391 652.496C469.695 652.637 470.738 653.129 471.52 653.973C472.309 654.809 472.703 655.875 472.703 657.172C472.703 658.164 472.461 659.047 471.977 659.82C471.5 660.586 470.836 661.18 469.984 661.602C469.141 662.023 468.184 662.234 467.113 662.234C466.059 662.234 465.109 662.023 464.266 661.602C463.43 661.18 462.777 660.578 462.309 659.797C461.848 659.008 461.625 658.102 461.641 657.078H464.348C464.348 657.891 464.609 658.551 465.133 659.059C465.656 659.566 466.332 659.82 467.16 659.82C467.973 659.82 468.645 659.574 469.176 659.082C469.707 658.582 469.973 657.922 469.973 657.102C469.973 656.336 469.738 655.73 469.27 655.285C468.809 654.832 468.188 654.574 467.406 654.512C467.133 654.48 466.586 654.465 465.766 654.465H464.875V652.613L468.555 648.992H462.555V646.613H471.965V648.945L468.391 652.496ZM481.469 652.496C482.773 652.637 483.816 653.129 484.598 653.973C485.387 654.809 485.781 655.875 485.781 657.172C485.781 658.164 485.539 659.047 485.055 659.82C484.578 660.586 483.914 661.18 483.062 661.602C482.219 662.023 481.262 662.234 480.191 662.234C479.137 662.234 478.188 662.023 477.344 661.602C476.508 661.18 475.855 660.578 475.387 659.797C474.926 659.008 474.703 658.102 474.719 657.078H477.426C477.426 657.891 477.688 658.551 478.211 659.059C478.734 659.566 479.41 659.82 480.238 659.82C481.051 659.82 481.723 659.574 482.254 659.082C482.785 658.582 483.051 657.922 483.051 657.102C483.051 656.336 482.816 655.73 482.348 655.285C481.887 654.832 481.266 654.574 480.484 654.512C480.211 654.48 479.664 654.465 478.844 654.465H477.953V652.613L481.633 648.992H475.633V646.613H485.043V648.945L481.469 652.496ZM492.285 659.527H497.98V662H488.254V660.031L493.727 654.102C494.188 653.609 494.559 653.125 494.84 652.648C495.121 652.164 495.262 651.633 495.262 651.055C495.262 650.383 495.043 649.84 494.605 649.426C494.176 649.012 493.609 648.805 492.906 648.805C492.094 648.805 491.457 649.062 490.996 649.578C490.543 650.086 490.355 650.723 490.434 651.488H487.75C487.688 650.496 487.875 649.609 488.312 648.828C488.758 648.039 489.395 647.426 490.223 646.988C491.059 646.551 492.004 646.332 493.059 646.332C494.035 646.332 494.898 646.52 495.648 646.895C496.398 647.27 496.98 647.801 497.395 648.488C497.816 649.176 498.027 649.969 498.027 650.867C498.027 651.844 497.824 652.68 497.418 653.375C497.02 654.07 496.484 654.801 495.812 655.566L492.285 659.527Z" fill="#035755"/>
<path d="M530.348 647.383C530.947 646.663 532.053 646.663 532.652 647.383L540.95 657.34C541.764 658.317 541.069 659.8 539.797 659.8H523.203C521.931 659.8 521.236 658.317 522.05 657.34L530.348 647.383Z" fill="#F44A45"/>
<path d="M171.844 183.914V189H153.445V158.227H159.117V183.914H171.844ZM178.641 163.406C177.547 163.406 176.648 163.062 175.945 162.375C175.242 161.688 174.891 160.836 174.891 159.82C174.891 158.789 175.242 157.938 175.945 157.266C176.648 156.594 177.547 156.258 178.641 156.258C179.734 156.258 180.617 156.594 181.289 157.266C181.977 157.938 182.32 158.789 182.32 159.82C182.32 160.805 181.969 161.648 181.266 162.352C180.562 163.055 179.688 163.406 178.641 163.406ZM175.945 167.602H181.312V189H175.945V167.602ZM190.641 167.602L193.055 174.117C193.727 176.07 194.367 177.93 194.977 179.695C195.586 181.445 195.984 182.641 196.172 183.281C196.391 182.641 196.867 181.297 197.602 179.25C198.336 177.203 198.977 175.492 199.523 174.117L202.078 167.602H207.633L198.703 189H193.383L184.898 167.602H190.641ZM230.555 182.32C230.086 184.508 228.891 186.273 226.969 187.617C225.047 188.961 222.758 189.633 220.102 189.633C217.898 189.633 215.953 189.156 214.266 188.203C212.594 187.234 211.289 185.891 210.352 184.172C209.43 182.438 208.969 180.445 208.969 178.195C208.969 175.93 209.438 173.953 210.375 172.266C211.328 170.562 212.633 169.25 214.289 168.328C215.961 167.391 217.852 166.922 219.961 166.922C222.039 166.922 223.875 167.367 225.469 168.258C227.078 169.133 228.32 170.336 229.195 171.867C230.07 173.398 230.508 175.156 230.508 177.141C230.508 178.203 230.43 179.086 230.273 179.789H214.242C214.305 181.414 214.867 182.727 215.93 183.727C217.008 184.711 218.398 185.203 220.102 185.203C221.383 185.203 222.484 184.953 223.406 184.453C224.344 183.938 224.984 183.227 225.328 182.32H230.555ZM225.047 176.18C225.016 174.68 224.516 173.5 223.547 172.641C222.594 171.766 221.352 171.328 219.82 171.328C218.258 171.328 216.969 171.773 215.953 172.664C214.938 173.539 214.398 174.711 214.336 176.18H225.047ZM246.867 158.227H259.078C262.828 158.227 265.672 159.062 267.609 160.734C269.562 162.391 270.539 164.758 270.539 167.836C270.539 169.977 270.039 171.805 269.039 173.32C268.055 174.82 266.664 175.906 264.867 176.578L270.727 189H264.445L259.266 177.539H252.492V189H246.867V158.227ZM259.078 172.641C260.906 172.641 262.289 172.203 263.227 171.328C264.164 170.438 264.633 169.289 264.633 167.883C264.633 166.477 264.156 165.344 263.203 164.484C262.266 163.609 260.891 163.172 259.078 163.172H252.492V172.641H259.078ZM295.148 182.32C294.68 184.508 293.484 186.273 291.562 187.617C289.641 188.961 287.352 189.633 284.695 189.633C282.492 189.633 280.547 189.156 278.859 188.203C277.188 187.234 275.883 185.891 274.945 184.172C274.023 182.438 273.562 180.445 273.562 178.195C273.562 175.93 274.031 173.953 274.969 172.266C275.922 170.562 277.227 169.25 278.883 168.328C280.555 167.391 282.445 166.922 284.555 166.922C286.633 166.922 288.469 167.367 290.062 168.258C291.672 169.133 292.914 170.336 293.789 171.867C294.664 173.398 295.102 175.156 295.102 177.141C295.102 178.203 295.023 179.086 294.867 179.789H278.836C278.898 181.414 279.461 182.727 280.523 183.727C281.602 184.711 282.992 185.203 284.695 185.203C285.977 185.203 287.078 184.953 288 184.453C288.938 183.938 289.578 183.227 289.922 182.32H295.148ZM289.641 176.18C289.609 174.68 289.109 173.5 288.141 172.641C287.188 171.766 285.945 171.328 284.414 171.328C282.852 171.328 281.562 171.773 280.547 172.664C279.531 173.539 278.992 174.711 278.93 176.18H289.641ZM312.094 166.922C314.109 166.922 315.906 167.398 317.484 168.352C319.062 169.289 320.297 170.617 321.188 172.336C322.094 174.039 322.547 176.008 322.547 178.242C322.547 180.477 322.094 182.461 321.188 184.195C320.297 185.93 319.062 187.273 317.484 188.227C315.906 189.164 314.086 189.633 312.023 189.633C310.492 189.633 309.102 189.375 307.852 188.859C306.602 188.344 305.609 187.609 304.875 186.656V198.844H299.555V167.602H303.961L304.359 170.672C305.125 169.516 306.188 168.602 307.547 167.93C308.906 167.258 310.422 166.922 312.094 166.922ZM311.016 184.781C312.844 184.781 314.305 184.18 315.398 182.977C316.508 181.773 317.062 180.211 317.062 178.289C317.062 176.336 316.508 174.766 315.398 173.578C314.305 172.375 312.859 171.773 311.062 171.773C309.266 171.773 307.805 172.375 306.68 173.578C305.57 174.766 305.016 176.352 305.016 178.336C305.016 180.289 305.57 181.852 306.68 183.023C307.789 184.195 309.234 184.781 311.016 184.781ZM326.016 178.289C326.016 176.117 326.508 174.172 327.492 172.453C328.492 170.719 329.875 169.367 331.641 168.398C333.422 167.414 335.445 166.922 337.711 166.922C339.977 166.922 342 167.414 343.781 168.398C345.562 169.367 346.945 170.719 347.93 172.453C348.93 174.172 349.43 176.117 349.43 178.289C349.43 180.43 348.93 182.367 347.93 184.102C346.945 185.836 345.562 187.195 343.781 188.18C342.016 189.148 339.992 189.633 337.711 189.633C335.445 189.633 333.422 189.148 331.641 188.18C329.875 187.195 328.492 185.844 327.492 184.125C326.508 182.391 326.016 180.445 326.016 178.289ZM331.523 178.242C331.523 180.164 332.102 181.742 333.258 182.977C334.414 184.211 335.898 184.828 337.711 184.828C339.57 184.828 341.078 184.211 342.234 182.977C343.391 181.742 343.969 180.164 343.969 178.242C343.969 176.32 343.391 174.75 342.234 173.531C341.078 172.297 339.57 171.68 337.711 171.68C335.883 171.68 334.391 172.297 333.234 173.531C332.094 174.75 331.523 176.32 331.523 178.242ZM364.641 167.391C365.344 167.406 366.016 167.477 366.656 167.602V172.195C366.078 172.133 365.656 172.102 365.391 172.102C363.469 172.102 361.984 172.641 360.938 173.719C359.906 174.781 359.391 176.289 359.391 178.242V189H354.023V167.602H358.875L359.344 170.672C359.656 169.609 360.289 168.797 361.242 168.234C362.195 167.672 363.328 167.391 364.641 167.391ZM382.781 172.008H378.703V189H373.336V172.008H369.258V167.602H373.336V161.977H378.703V167.602H382.781V172.008ZM395.18 189.633C392.523 189.633 390.359 189.008 388.688 187.758C387.031 186.508 386.141 184.828 386.016 182.719H391.289C391.352 183.641 391.734 184.352 392.438 184.852C393.141 185.352 394.039 185.602 395.133 185.602C396.227 185.602 397.07 185.391 397.664 184.969C398.273 184.547 398.578 183.938 398.578 183.141C398.578 182.406 398.336 181.875 397.852 181.547C397.383 181.203 396.766 180.953 396 180.797L392.391 179.93C390.375 179.477 388.891 178.719 387.938 177.656C387 176.578 386.531 175.289 386.531 173.789C386.531 171.711 387.32 170.047 388.898 168.797C390.492 167.547 392.555 166.922 395.086 166.922C397.617 166.922 399.664 167.547 401.227 168.797C402.789 170.047 403.602 171.695 403.664 173.742H398.391C398.391 172.883 398.078 172.203 397.453 171.703C396.828 171.203 396.008 170.953 394.992 170.953C394.07 170.953 393.336 171.156 392.789 171.562C392.242 171.953 391.969 172.516 391.969 173.25C391.969 173.984 392.18 174.5 392.602 174.797C393.039 175.078 393.672 175.32 394.5 175.523L398.625 176.461C400.484 176.914 401.859 177.688 402.75 178.781C403.656 179.859 404.109 181.156 404.109 182.672C404.109 184.781 403.297 186.469 401.672 187.734C400.062 189 397.898 189.633 395.18 189.633Z" fill="#035755"/>
<g filter="url(#filter4_d)">
<rect x="457" y="151" width="86.0003" height="48.954" rx="6.16667" fill="white"/>
</g>
<path d="M480.222 182.887L472.879 175.544L480.222 168.201" stroke="#A2A5B2" stroke-width="2.85" stroke-linecap="round" stroke-linejoin="round"/>
<path d="M519.185 168.068L526.528 175.411L519.185 182.754" stroke="#F44A45" stroke-width="2.85" stroke-linecap="round" stroke-linejoin="round"/>
<line x1="500.455" y1="166.669" x2="500.455" y2="184.021" stroke="#DEE1ED" stroke-width="2.23" stroke-linecap="round"/>
<defs>
<filter id="filter0_d" x="0" y="0" width="694" height="825" filterUnits="userSpaceOnUse" color-interpolation-filters="sRGB">
<feFlood flood-opacity="0" result="BackgroundImageFix"/>
<feColorMatrix in="SourceAlpha" type="matrix" values="0 0 0 0 0 0 0 0 0 0 0 0 0 0 0 0 0 0 127 0"/>
<feOffset dy="7"/>
<feGaussianBlur stdDeviation="47.5"/>
<feColorMatrix type="matrix" values="0 0 0 0 0 0 0 0 0 0 0 0 0 0 0 0 0 0 0.07 0"/>
<feBlend mode="normal" in2="BackgroundImageFix" result="effect1_dropShadow"/>
<feBlend mode="normal" in="SourceGraphic" in2="effect1_dropShadow" result="shape"/>
</filter>
<filter id="filter1_d" x="152.332" y="257.333" width="16.3339" height="13.0125" filterUnits="userSpaceOnUse" color-interpolation-filters="sRGB">
<feFlood flood-opacity="0" result="BackgroundImageFix"/>
<feColorMatrix in="SourceAlpha" type="matrix" values="0 0 0 0 0 0 0 0 0 0 0 0 0 0 0 0 0 0 127 0"/>
<feOffset dy="1.34615"/>
<feColorMatrix type="matrix" values="0 0 0 0 0 0 0 0 0 0 0 0 0 0 0 0 0 0 0.06 0"/>
<feBlend mode="normal" in2="BackgroundImageFix" result="effect1_dropShadow"/>
<feBlend mode="normal" in="SourceGraphic" in2="effect1_dropShadow" result="shape"/>
</filter>
<filter id="filter2_d" x="150" y="570.667" width="49" height="11.6667" filterUnits="userSpaceOnUse" color-interpolation-filters="sRGB">
<feFlood flood-opacity="0" result="BackgroundImageFix"/>
<feColorMatrix in="SourceAlpha" type="matrix" values="0 0 0 0 0 0 0 0 0 0 0 0 0 0 0 0 0 0 127 0"/>
<feOffset/>
<feColorMatrix type="matrix" values="0 0 0 0 0 0 0 0 0 0 0 0 0 0 0 0 0 0 0.06 0"/>
<feBlend mode="normal" in2="BackgroundImageFix" result="effect1_dropShadow"/>
<feBlend mode="normal" in="SourceGraphic" in2="effect1_dropShadow" result="shape"/>
</filter>
<filter id="filter3_d" x="150" y="582.333" width="49" height="11.6667" filterUnits="userSpaceOnUse" color-interpolation-filters="sRGB">
<feFlood flood-opacity="0" result="BackgroundImageFix"/>
<feColorMatrix in="SourceAlpha" type="matrix" values="0 0 0 0 0 0 0 0 0 0 0 0 0 0 0 0 0 0 127 0"/>
<feOffset/>
<feColorMatrix type="matrix" values="0 0 0 0 0 0 0 0 0 0 0 0 0 0 0 0 0 0 0.06 0"/>
<feBlend mode="normal" in2="BackgroundImageFix" result="effect1_dropShadow"/>
<feBlend mode="normal" in="SourceGraphic" in2="effect1_dropShadow" result="shape"/>
</filter>
<filter id="filter4_d" x="407" y="106" width="186" height="148.954" filterUnits="userSpaceOnUse" color-interpolation-filters="sRGB">
<feFlood flood-opacity="0" result="BackgroundImageFix"/>
<feColorMatrix in="SourceAlpha" type="matrix" values="0 0 0 0 0 0 0 0 0 0 0 0 0 0 0 0 0 0 127 0"/>
<feOffset dy="5"/>
<feGaussianBlur stdDeviation="25"/>
<feColorMatrix type="matrix" values="0 0 0 0 0.341667 0 0 0 0 0.00333333 0 0 0 0 0 0 0 0 0.1 0"/>
<feBlend mode="normal" in2="BackgroundImageFix" result="effect1_dropShadow"/>
<feBlend mode="normal" in="SourceGraphic" in2="effect1_dropShadow" result="shape"/>
</filter>
<linearGradient id="paint0_linear" x1="330" y1="1227.5" x2="330" y2="54" gradientUnits="userSpaceOnUse">
<stop stop-color="#FFFBFB"/>
<stop offset="1" stop-color="#FDFDFD"/>
</linearGradient>
<linearGradient id="paint1_linear" x1="152.332" y1="257.333" x2="152.332" y2="269" gradientUnits="userSpaceOnUse">
<stop stop-color="white"/>
<stop offset="1" stop-color="#F0F0F0"/>
</linearGradient>
</defs>
</svg>
